<?xml version="1.0" encoding="UTF-8" standalone="no"?>
<svg
   xmlns:sketch="http://www.bohemiancoding.com/sketch/ns"
   xmlns:dc="http://purl.org/dc/elements/1.1/"
   xmlns:cc="http://creativecommons.org/ns#"
   xmlns:rdf="http://www.w3.org/1999/02/22-rdf-syntax-ns#"
   xmlns:svg="http://www.w3.org/2000/svg"
   xmlns="http://www.w3.org/2000/svg"
   xmlns:sodipodi="http://sodipodi.sourceforge.net/DTD/sodipodi-0.dtd"
   xmlns:inkscape="http://www.inkscape.org/namespaces/inkscape"
   viewBox="0 0 100 100"
   version="1.1"
   x="0px"
   y="0px"
   id="svg2"
   inkscape:version="0.91 r13725"
   sodipodi:docname="blocks.svg"
   width="100"
   height="100">
  <metadata
     id="metadata22">
    <rdf:RDF>
      <cc:Work
         rdf:about="">
        <dc:format>image/svg+xml</dc:format>
        <dc:type
           rdf:resource="http://purl.org/dc/dcmitype/StillImage" />
        <dc:title>26-02-2015 - puzzle</dc:title>
      </cc:Work>
    </rdf:RDF>
  </metadata>
  <defs
     id="defs20" />
  <sodipodi:namedview
     pagecolor="#ffffff"
     bordercolor="#666666"
     borderopacity="1"
     objecttolerance="10"
     gridtolerance="10"
     guidetolerance="10"
     inkscape:pageopacity="0"
     inkscape:pageshadow="2"
     inkscape:window-width="1362"
     inkscape:window-height="729"
     id="namedview18"
     showgrid="false"
     inkscape:zoom="1.888"
     inkscape:cx="-22.563559"
     inkscape:cy="62.5"
     inkscape:window-x="0"
     inkscape:window-y="18"
     inkscape:window-maximized="0"
     inkscape:current-layer="svg2" />
  <title
     id="title4">26-02-2015 - puzzle</title>
  <desc
     id="desc6">Created with Sketch.</desc>
  <g
     sketch:type="MSPage"
     id="g8"
     style="fill:none;fill-rule:evenodd;stroke:none;stroke-width:1"
     transform="matrix(1.5027476,0,0,1.5027476,-23.390026,-29.8432)">
    <g
       sketch:type="MSArtboardGroup"
       id="g10"
       style="fill:#000000">
      <path
         d="m 20.999435,60.497654 c 0,-4.256325 11.123288,13.566508 11.123288,-6.384239 0,-19.950748 -11.123288,-4.522004 -11.123288,-8.778329 0,-2.128379 0.606178,-11.967771 0.606178,-11.967771 0.20849,-3.527396 3.122938,-5.598546 6.532151,-4.636382 0,0 11.204226,3.295034 13.323246,3.295034 4.237608,0 -15.694452,-13.025867 4.963083,-13.025867 20.657534,0 1.324531,13.025867 5.561644,13.025867 2.119515,0 12.95687,-3.26669 12.95687,-3.26669 3.375356,-0.982447 5.180556,0.935068 4.121865,4.31283 0,0 -3.119749,7.939385 -1.982845,12.262979 1.11968,4.258095 11.917808,-13.566508 11.917808,7.182269 0,20.748777 -9.902431,2.208482 -11.123288,7.182269 -1.084961,4.42015 1.706268,14.532181 1.706268,14.532181 0.812861,3.433331 -1.391427,6.010474 -4.908257,5.746376 0,0 -7.710033,-0.512685 -12.688421,-1.141122 C 48.514244,78.398843 62.314504,65.973065 46.424093,66.083863 30.533682,66.194661 45.38629,78.76244 42.45149,78.837059 36.918483,78.97774 27.396246,79.386836 27.396246,79.386836 23.863385,79.532383 20.999435,76.783149 20.999435,73.248354 l 0,-12.7507 z"
         sketch:type="MSShapeGroup"
         transform="matrix(0.93969262,-0.34202014,0.34202014,0.93969262,-13.914131,20.085936)"
         id="path12"
         inkscape:connector-curvature="0" />
    </g>
  </g>
</svg>
