<?xml version="1.0" encoding="UTF-8" standalone="no"?>
<svg
   xmlns:dc="http://purl.org/dc/elements/1.1/"
   xmlns:cc="http://creativecommons.org/ns#"
   xmlns:rdf="http://www.w3.org/1999/02/22-rdf-syntax-ns#"
   xmlns:svg="http://www.w3.org/2000/svg"
   xmlns="http://www.w3.org/2000/svg"
   xmlns:sodipodi="http://sodipodi.sourceforge.net/DTD/sodipodi-0.dtd"
   xmlns:inkscape="http://www.inkscape.org/namespaces/inkscape"
   version="1.1"
   x="0px"
   y="0px"
   viewBox="0 0 100 100"
   xml:space="preserve"
   id="svg2"
   inkscape:version="0.91 r13725"
   sodipodi:docname="block.svg"
   width="100"
   height="100"><metadata
     id="metadata16"><rdf:RDF><cc:Work
         rdf:about=""><dc:format>image/svg+xml</dc:format><dc:type
           rdf:resource="http://purl.org/dc/dcmitype/StillImage" /><dc:title></dc:title></cc:Work></rdf:RDF></metadata><defs
     id="defs14" /><sodipodi:namedview
     pagecolor="#ffffff"
     bordercolor="#666666"
     borderopacity="1"
     objecttolerance="10"
     gridtolerance="10"
     guidetolerance="10"
     inkscape:pageopacity="0"
     inkscape:pageshadow="2"
     inkscape:window-width="1362"
     inkscape:window-height="729"
     id="namedview12"
     showgrid="false"
     inkscape:zoom="2"
     inkscape:cx="113.93178"
     inkscape:cy="-14.832129"
     inkscape:window-x="0"
     inkscape:window-y="18"
     inkscape:window-maximized="0"
     inkscape:current-layer="svg2" /><g
     id="g4"
     transform="matrix(4.1666667,0,0,4.1666667,-4.0000001e-7,-0.98333374)"><path
       d="m 18.471,20.236 -4.479,0 c -0.4,0 -0.755,-0.238 -0.904,-0.607 -0.15,-0.374 -0.059,-0.797 0.233,-1.079 C 13.772,18.117 14,17.675 14,17.236 c 0,-0.827 -1.087,-1 -2,-1 -0.913,0 -2,0.173 -2,1 0,0.439 0.228,0.881 0.678,1.314 0.292,0.282 0.384,0.705 0.233,1.079 -0.149,0.369 -0.503,0.607 -0.904,0.607 l -4.478,0 C 5.127,20.236 4.755,20.054 4.508,19.738 4.263,19.424 4.177,19.023 4.274,18.636 4.977,15.825 4.992,14.585 4.887,14.24 4.519,14.267 4.31,14.427 4.03,14.64 3.68,14.906 3.247,15.236 2.5,15.236 c -1.503,0 -2.5,-1.806 -2.5,-3 0,-1.194 0.997,-3 2.5,-3 0.747,0 1.18,0.33 1.529,0.596 0.28,0.213 0.49,0.373 0.857,0.4 C 4.991,9.887 4.976,8.647 4.273,5.836 4.177,5.449 4.262,5.048 4.507,4.734 4.754,4.418 5.127,4.236 5.528,4.236 l 4.479,0 c 0.4,0 0.755,0.238 0.904,0.607 0.15,0.374 0.059,0.797 -0.233,1.079 C 10.228,6.355 10,6.797 10,7.236 c 0,0.827 1.087,1 2,1 0.913,0 2,-0.173 2,-1 C 14,6.797 13.772,6.355 13.322,5.922 13.03,5.64 12.938,5.217 13.089,4.843 13.238,4.474 13.592,4.236 13.993,4.236 l 4.479,0 c 0.402,0 0.774,0.182 1.021,0.498 0.245,0.314 0.331,0.715 0.234,1.102 -0.703,2.811 -0.718,4.051 -0.613,4.396 0.368,-0.027 0.577,-0.187 0.857,-0.4 0.349,-0.266 0.782,-0.596 1.529,-0.596 1.503,0 2.5,1.806 2.5,3 0,1.194 -0.997,3 -2.5,3 -0.747,0 -1.18,-0.33 -1.529,-0.596 -0.28,-0.213 -0.49,-0.373 -0.857,-0.4 -0.105,0.345 -0.09,1.585 0.613,4.396 0.097,0.386 0.011,0.788 -0.234,1.102 -0.247,0.316 -0.62,0.498 -1.022,0.498 z m -6.471,-5 c 2.708,0 3,1.398 3,2 0,0.711 -0.34,1.414 -0.984,2.035 l 4.456,-0.035 c 0.092,0 0.177,-0.042 0.233,-0.113 0.032,-0.041 0.081,-0.127 0.052,-0.244 -1.106,-4.422 -0.594,-5.077 -0.402,-5.324 0.161,-0.206 0.39,-0.319 0.645,-0.319 0.778,0 1.222,0.337 1.578,0.609 0.298,0.227 0.513,0.391 0.922,0.391 0.813,0 1.5,-1.229 1.5,-2 0,-0.771 -0.687,-2 -1.5,-2 -0.409,0 -0.625,0.164 -0.922,0.391 -0.356,0.271 -0.799,0.609 -1.578,0.609 -0.255,0 -0.484,-0.113 -0.645,-0.319 C 18.163,10.67 17.651,10.015 18.757,5.593 18.786,5.476 18.736,5.39 18.705,5.349 18.649,5.277 18.563,5.236 18.472,5.236 l -4.479,0 c 0.667,0.586 1.007,1.289 1.007,2 0,0.602 -0.292,2 -3,2 -2.708,0 -3,-1.398 -3,-2 C 9,6.525 9.34,5.822 9.984,5.201 L 5.529,5.236 C 5.437,5.236 5.352,5.278 5.296,5.349 5.264,5.39 5.214,5.476 5.243,5.593 6.349,10.015 5.837,10.67 5.645,10.917 5.484,11.122 5.255,11.236 5,11.236 4.222,11.236 3.778,10.899 3.422,10.627 3.125,10.4 2.909,10.236 2.5,10.236 c -0.813,0 -1.5,1.229 -1.5,2 0,0.771 0.687,2 1.5,2 0.409,0 0.625,-0.164 0.922,-0.391 0.356,-0.272 0.8,-0.609 1.578,-0.609 0.255,0 0.484,0.113 0.645,0.319 0.192,0.247 0.704,0.902 -0.402,5.324 -0.029,0.117 0.021,0.203 0.052,0.244 0.056,0.072 0.142,0.113 0.233,0.113 l 4.479,0 C 9.34,18.65 9,17.947 9,17.236 c 0,-0.602 0.292,-2 3,-2 z"
       id="path6"
       inkscape:connector-curvature="0" /></g></svg>