<?xml version="1.0" encoding="UTF-8" standalone="no"?>
<svg
   xmlns:v="http://schemas.microsoft.com/visio/2003/SVGExtensions/"
   xmlns:dc="http://purl.org/dc/elements/1.1/"
   xmlns:cc="http://creativecommons.org/ns#"
   xmlns:rdf="http://www.w3.org/1999/02/22-rdf-syntax-ns#"
   xmlns:svg="http://www.w3.org/2000/svg"
   xmlns="http://www.w3.org/2000/svg"
   xmlns:sodipodi="http://sodipodi.sourceforge.net/DTD/sodipodi-0.dtd"
   xmlns:inkscape="http://www.inkscape.org/namespaces/inkscape"
   version="1.1"
   x="0px"
   y="0px"
   viewBox="0 0 100 100"
   enable-background="new 0 0 100 100"
   xml:space="preserve"
   id="svg2"
   inkscape:version="0.91 r13725"
   sodipodi:docname="concept.svg"
   width="100"
   height="100"><metadata
     id="metadata14"><rdf:RDF><cc:Work
         rdf:about=""><dc:format>image/svg+xml</dc:format><dc:type
           rdf:resource="http://purl.org/dc/dcmitype/StillImage" /><dc:title></dc:title></cc:Work></rdf:RDF></metadata><defs
     id="defs12" /><sodipodi:namedview
     pagecolor="#ffffff"
     bordercolor="#666666"
     borderopacity="1"
     objecttolerance="10"
     gridtolerance="10"
     guidetolerance="10"
     inkscape:pageopacity="0"
     inkscape:pageshadow="2"
     inkscape:window-width="1362"
     inkscape:window-height="729"
     id="namedview10"
     showgrid="false"
     inkscape:zoom="1.888"
     inkscape:cx="-22.563559"
     inkscape:cy="62.5"
     inkscape:window-x="0"
     inkscape:window-y="18"
     inkscape:window-maximized="0"
     inkscape:current-layer="svg2" /><v:documentProperties
     v:viewMarkup="false"
     v:langID="1033"><v:userDefs><v:ud
         v:nameU="msvNoAutoConnect"
         v:val="VT0(0):26" /></v:userDefs></v:documentProperties><path
     d="m 11.293685,29.665877 c 0.338425,0 0.678043,-0.128697 0.935437,-0.389666 0.517171,-0.517172 0.517171,-1.357278 0,-1.872066 L 8.3205448,23.494377 c -0.518363,-0.517172 -1.354894,-0.517172 -1.870874,0 -0.518363,0.51598 -0.518363,1.356085 0,1.870874 l 3.9085772,3.91096 c 0.257394,0.260969 0.597011,0.389666 0.935437,0.389666 z m 82.256474,-6.170308 c -0.51598,-0.517172 -1.351318,-0.517172 -1.869681,0 l -3.914535,3.91096 c -0.514788,0.515979 -0.514788,1.356085 0,1.872065 0.262161,0.258586 0.600586,0.388474 0.93782,0.388474 0.340809,0 0.678043,-0.128697 0.939012,-0.389666 l 3.908574,-3.908577 c 0.51717,-0.517171 0.51717,-1.358468 -0.001,-1.873256 z M 27.353407,13.684802 c 0.184704,0.555304 0.700684,0.905646 1.255988,0.905646 0.137039,0 0.277652,-0.02264 0.419457,-0.06912 0.692343,-0.231178 1.067709,-0.980719 0.837723,-1.674253 L 27.911094,6.9818267 c -0.231178,-0.694726 -0.980719,-1.066517 -1.675444,-0.837723 -0.692343,0.23237 -1.068901,0.981911 -0.837723,1.675445 l 1.95548,5.8652493 z m 43.615189,-0.668509 c 0.139422,0.04647 0.277652,0.06912 0.419457,0.06912 0.554112,0 1.071284,-0.350342 1.260754,-0.906838 l 1.950714,-5.8628653 c 0.231178,-0.694726 -0.14538,-1.443075 -0.837722,-1.675445 -0.694726,-0.233561 -1.444267,0.144189 -1.67187,0.837723 l -1.953097,5.8628653 c -0.234753,0.694726 0.135847,1.44665 0.831764,1.675445 z M 49.986212,8.8276807 c 0.144188,0 0.285993,-0.02145 0.418265,-0.06435 0.52313,-0.173979 0.905646,-0.668509 0.909221,-1.254796 l 0.02145,-6.181033 C 51.336348,0.59583566 50.746478,0.00120766 50.017195,1.566246e-5 49.281953,-0.00358434 48.687325,0.58868566 48.687325,1.3191607 l -0.02264,6.181033 c -0.0036,0.734049 0.587478,1.327486 1.321528,1.327486 z m 12.006957,80.5905633 0,2.181892 c 0,0.642293 -0.519555,1.15589 -1.158273,1.15589 l -20.926377,0 c -0.639911,0 -1.15589,-0.511213 -1.15589,-1.15589 l 0,-2.181892 c 0,-0.637527 0.517171,-1.159465 1.15589,-1.159465 l 20.927568,0 c 0.638719,0 1.158274,0.521938 1.157082,1.159465 z m -20.248334,6.146476 17.253745,0 C 57.581721,98.172026 54.251089,100 50.373495,100 c -3.881169,0 -7.209418,-1.827974 -8.62866,-4.43528 z m 8.62866,-75.016075 c -17.621962,0 -31.90495,13.827782 -31.90495,31.448551 0,10.805785 11.171618,23.385921 11.171618,23.385921 1.334636,1.502657 2.781286,2.290331 3.211468,4.257727 l 0.847255,2.517934 c 0.427799,1.963821 2.426178,3.235301 4.436473,3.235301 l 23.786312,0 c 2.010295,0 4.06349,-1.25718 4.561595,-3.203127 l 0.942587,-2.327271 c 0.496913,-1.951905 2.003145,-2.718129 3.356847,-4.210062 0,0 11.494553,-12.694533 11.494553,-23.656423 0,-17.620769 -14.282989,-31.448551 -31.903758,-31.448551 z m 17.421766,12.814888 c -4.516313,-4.583044 -10.557924,-6.376461 -10.014537,-6.693437 1.943564,-1.120141 7.866011,1.146356 11.751947,5.424341 4.275601,4.697442 7.758763,11.506469 5.663861,11.693557 -0.40754,0.03813 -2.73362,-5.688886 -7.401271,-10.424461 z m -6.170308,26.38766 c -0.04767,0.08937 -4.853547,8.827664 -4.472223,16.625751 0.02264,0.477848 -0.347958,0.883005 -0.824614,0.908029 -0.01668,0.0024 -0.02979,0.0024 -0.04409,0.0024 -0.458781,0 -0.841297,-0.362259 -0.863938,-0.824615 -0.320551,-6.548058 2.654972,-13.45599 4.025357,-16.265876 l -3.145927,0 c -0.412307,0 -0.765033,-0.293143 -0.846064,-0.689959 l -1.203556,2.652589 c -0.166829,0.36345 -0.561262,0.569604 -0.947353,0.49453 -0.389666,-0.07031 -0.684001,-0.398007 -0.707834,-0.797206 l -0.09652,-1.528873 -0.846063,2.135417 c -0.154914,0.386091 -0.555304,0.617269 -0.971186,0.53028 -0.406349,-0.07746 -0.700684,-0.433757 -0.700684,-0.852022 l 0,-1.61348 -0.784099,1.774351 c -0.163255,0.3706 -0.56722,0.582711 -0.956886,0.50168 -0.395625,-0.07507 -0.687576,-0.418265 -0.700684,-0.821039 l -0.09414,-2.693105 -0.358683,0.526704 c -0.160871,0.237137 -0.430182,0.382517 -0.718559,0.382517 l -3.023188,0 c 3.305607,6.07021 3.825162,15.739171 3.846611,16.178886 0.02264,0.479039 -0.343192,0.884196 -0.821039,0.910412 -0.475464,0.05005 -0.887772,-0.343192 -0.910413,-0.822231 -0.0072,-0.109631 -0.602969,-11.196642 -4.373316,-16.638859 -0.184704,-0.266927 -0.206153,-0.611311 -0.05601,-0.897304 0.148955,-0.284802 0.44329,-0.462356 0.768607,-0.462356 l 4.107581,0 1.589647,-2.353488 c 0.21092,-0.311018 0.598203,-0.45044 0.958078,-0.346767 0.362258,0.103673 0.614886,0.425415 0.627994,0.803165 l 0.05481,1.570581 0.918754,-2.079411 c 0.163255,-0.372983 0.56722,-0.58152 0.972378,-0.50168 0.401582,0.0858 0.686384,0.440906 0.686384,0.85083 l 0,1.196406 0.600586,-1.514573 c 0.150147,-0.376558 0.546962,-0.597012 0.941395,-0.536238 0.400391,0.06554 0.70545,0.395624 0.731667,0.803165 l 0.117972,1.920922 1.008127,-2.225982 c 0.160871,-0.352725 0.538621,-0.550537 0.918754,-0.498105 0.382516,0.05601 0.682809,0.358683 0.731666,0.7412 l 0.29791,2.172358 3.812054,0 c 0.306251,0 0.58867,0.163255 0.745966,0.427798 0.15253,0.257395 0.154913,0.585095 0.0048,0.853214 z"
     id="path4"
     inkscape:connector-curvature="0" /></svg>