<?xml version="1.0" encoding="UTF-8" standalone="no"?>
<svg
   xmlns:dc="http://purl.org/dc/elements/1.1/"
   xmlns:cc="http://creativecommons.org/ns#"
   xmlns:rdf="http://www.w3.org/1999/02/22-rdf-syntax-ns#"
   xmlns:svg="http://www.w3.org/2000/svg"
   xmlns="http://www.w3.org/2000/svg"
   xmlns:sodipodi="http://sodipodi.sourceforge.net/DTD/sodipodi-0.dtd"
   xmlns:inkscape="http://www.inkscape.org/namespaces/inkscape"
   version="1.1"
   x="0px"
   y="0px"
   viewBox="0 0 100 100"
   enable-background="new 0 0 100 100"
   xml:space="preserve"
   id="svg2"
   inkscape:version="0.91 r13725"
   sodipodi:docname="credits.svg"
   width="100"
   height="100"><metadata
     id="metadata28"><rdf:RDF><cc:Work
         rdf:about=""><dc:format>image/svg+xml</dc:format><dc:type
           rdf:resource="http://purl.org/dc/dcmitype/StillImage" /><dc:title></dc:title></cc:Work></rdf:RDF></metadata><defs
     id="defs26" /><sodipodi:namedview
     pagecolor="#ffffff"
     bordercolor="#666666"
     borderopacity="1"
     objecttolerance="10"
     gridtolerance="10"
     guidetolerance="10"
     inkscape:pageopacity="0"
     inkscape:pageshadow="2"
     inkscape:window-width="1362"
     inkscape:window-height="729"
     id="namedview24"
     showgrid="false"
     inkscape:zoom="1.888"
     inkscape:cx="-22.563559"
     inkscape:cy="62.5"
     inkscape:window-x="0"
     inkscape:window-y="18"
     inkscape:window-maximized="0"
     inkscape:current-layer="svg2" /><g
     id="g4"><g
       id="g6"><path
         d="M 50.001,88.961 C 24.345,88.961 3.211,79.864 0.344,68.15 0.125,69.044 0,69.951 0,70.871 0,83.867 22.388,94.404 50.001,94.404 77.613,94.404 100,83.867 100,70.871 c 0,-0.92 -0.125,-1.827 -0.344,-2.721 -2.869,11.714 -24,20.811 -49.655,20.811 z"
         id="path8"
         inkscape:connector-curvature="0" /><path
         d="M 50.001,80.561 C 24.371,80.561 3.254,71.477 0.353,59.783 0.128,60.686 0,61.604 0,62.536 0,75.531 22.388,86.064 50.001,86.064 77.613,86.064 100,75.531 100,62.536 c 0,-0.935 -0.127,-1.853 -0.354,-2.755 -2.902,11.696 -24.014,20.78 -49.645,20.78 z"
         id="path10"
         inkscape:connector-curvature="0" /><path
         d="M 50.001,72.223 C 24.345,72.223 3.211,63.124 0.344,51.412 0.125,52.307 0,53.211 0,54.133 0,67.131 22.388,77.668 50.001,77.668 77.613,77.668 100,67.131 100,54.133 c 0,-0.922 -0.125,-1.826 -0.344,-2.721 -2.869,11.712 -24,20.811 -49.655,20.811 z"
         id="path12"
         inkscape:connector-curvature="0" /><path
         d="M 50.001,63.766 C 24.345,63.766 3.213,54.668 0.344,42.956 0.125,43.849 0,44.758 0,45.678 c 0,12.995 22.388,23.53 50.001,23.53 27.612,0 49.999,-10.535 49.999,-23.53 0,-0.92 -0.125,-1.829 -0.344,-2.723 -2.869,11.713 -24,20.811 -49.655,20.811 z"
         id="path14"
         inkscape:connector-curvature="0" /><path
         d="M 50.001,55.428 C 24.345,55.428 3.211,46.333 0.344,34.62 0.124,35.513 0,36.421 0,37.342 0,50.335 22.388,60.873 50.001,60.873 77.613,60.873 100,50.335 100,37.342 c 0,-0.921 -0.125,-1.829 -0.344,-2.722 -2.867,11.713 -24,20.808 -49.655,20.808 z"
         id="path16"
         inkscape:connector-curvature="0" /><path
         d="m 49.996,22.813 c -7.404,0.01 -13.396,2.832 -13.408,6.315 0.012,3.487 6.004,6.302 13.408,6.31 C 57.4,35.43 63.394,32.61 63.41,29.128 63.395,25.645 57.4,22.823 49.996,22.813 Z m 0.005,9.024 c -3.177,0 -5.756,-1.214 -5.756,-2.709 0,-1.495 2.579,-2.709 5.756,-2.709 3.176,0 5.757,1.214 5.757,2.709 0,1.495 -2.581,2.709 -5.757,2.709 z m 0,-26.241 C 22.388,5.596 0,16.13 0,29.127 0,42.121 22.388,52.658 50.001,52.658 77.613,52.658 100,42.122 100,29.127 100,16.13 77.613,5.596 50.001,5.596 Z m -0.005,30.607 c -8.307,0 -15.034,-3.169 -15.043,-7.076 0.01,-3.91 6.736,-7.08 15.043,-7.08 8.3,0 15.046,3.169 15.046,7.08 0,3.907 -6.746,7.076 -15.046,7.076 z m 21.537,8.631 -9.706,-7.055 c 3.252,-0.987 5.899,-2.361 7.668,-3.992 l 16.139,3.589 c -3.195,3.048 -8.075,5.626 -14.101,7.458 z"
         id="path18"
         inkscape:connector-curvature="0" /></g></g></svg>