<?xml version="1.0" encoding="UTF-8" standalone="no"?>
<svg
   xmlns:dc="http://purl.org/dc/elements/1.1/"
   xmlns:cc="http://creativecommons.org/ns#"
   xmlns:rdf="http://www.w3.org/1999/02/22-rdf-syntax-ns#"
   xmlns:svg="http://www.w3.org/2000/svg"
   xmlns="http://www.w3.org/2000/svg"
   xmlns:sodipodi="http://sodipodi.sourceforge.net/DTD/sodipodi-0.dtd"
   xmlns:inkscape="http://www.inkscape.org/namespaces/inkscape"
   version="1.1"
   x="0px"
   y="0px"
   viewBox="0 0 100 100"
   enable-background="new 0 0 100 100"
   xml:space="preserve"
   id="svg2"
   inkscape:version="0.91 r13725"
   sodipodi:docname="credits2.svg"
   width="100"
   height="100"><metadata
     id="metadata28"><rdf:RDF><cc:Work
         rdf:about=""><dc:format>image/svg+xml</dc:format><dc:type
           rdf:resource="http://purl.org/dc/dcmitype/StillImage" /><dc:title></dc:title></cc:Work></rdf:RDF></metadata><defs
     id="defs26" /><sodipodi:namedview
     pagecolor="#ffffff"
     bordercolor="#666666"
     borderopacity="1"
     objecttolerance="10"
     gridtolerance="10"
     guidetolerance="10"
     inkscape:pageopacity="0"
     inkscape:pageshadow="2"
     inkscape:window-width="1362"
     inkscape:window-height="729"
     id="namedview24"
     showgrid="false"
     inkscape:zoom="1.888"
     inkscape:cx="-22.563559"
     inkscape:cy="62.5"
     inkscape:window-x="0"
     inkscape:window-y="18"
     inkscape:window-maximized="0"
     inkscape:current-layer="svg2" /><path
     d="m 50.488248,59.795936 c 0,6.094046 -4.936258,11.030304 -11.038333,11.030304 -6.090834,0 -11.028698,-4.936258 -11.028698,-11.030304 0,-6.097258 4.937864,-11.046362 11.028698,-11.046362 6.10047,0 11.038333,4.95071 11.038333,11.046362 l 0,0 z m -3.905328,0 c 0,-3.945474 -3.189137,-7.131399 -7.133005,-7.131399 -3.935838,0 -7.13461,3.185925 -7.13461,7.131399 0,3.93905 3.198772,7.137822 7.13461,7.137822 3.943868,0.0016 7.133005,-3.197166 7.133005,-7.137822 l 0,0 z"
     id="path4"
     inkscape:connector-curvature="0" /><g
     id="g6"
     transform="matrix(1.6058093,0,0,1.6058093,-27.086792,-32.443354)"><path
       d="M 64.094,69.793 C 70.914,57.281 66.303,41.603 53.785,34.784 46.68,30.908 38.178,30.587 30.804,33.929 c 9.387,-7.254 22.61,-6.757 31.428,1.164 10.092,9.071 10.926,24.6 1.862,34.7 z"
       id="path8"
       inkscape:connector-curvature="0" /></g><path
     d="m 78.906254,59.795936 c 0,21.781197 -17.667113,39.44831 -39.456339,39.44831 C 17.668718,99.244246 -1.3445786e-6,81.577133 -1.3445786e-6,59.795936 -1.3445786e-6,37.997075 17.668718,20.339596 39.449915,20.339596 c 21.789226,0 39.456339,17.657479 39.456339,39.45634 l 0,0 z m -25.643168,0 c 0,-7.630806 -6.182365,-13.819595 -13.813171,-13.819595 -7.632411,0 -13.813171,6.188789 -13.813171,13.819595 0,7.62117 6.18076,13.816383 13.813171,13.816383 7.632412,0 13.813171,-6.193607 13.813171,-13.816383 l 0,0 z M 66.536706,34.041967 50.974808,48.847528 c 0.457656,0.476926 0.878378,0.984361 1.270195,1.51749 L 69.539569,37.618104 c -0.913705,-1.24932 -1.920548,-2.444042 -3.002863,-3.576137 z M 51.85158,24.532364 44.724999,44.79286 c 1.637925,0.584514 3.168261,1.432382 4.538017,2.508274 L 62.539846,30.398386 C 59.320199,27.872448 55.715157,25.892485 51.85158,24.532364 Z M 12.363125,85.546693 27.931445,70.739526 C 27.47379,70.2626 27.046644,69.755165 26.650009,69.218824 L 9.3586547,81.959315 c 0.9249473,1.24932 1.9285773,2.452071 3.0044703,3.587378 z m 14.683519,9.504785 7.134611,-20.266919 c -1.64756,-0.579697 -3.181108,-1.411506 -4.549258,-2.497033 L 16.36159,89.188668 c 3.222859,2.525938 6.831112,4.50269 10.685054,5.86281 z"
     id="path10"
     inkscape:connector-curvature="0" /><g
     id="g12"
     transform="matrix(1.6058093,0,0,1.6058093,-27.086792,-32.443354)"><path
       d="M 68.477,65.723 C 75.295,53.209 70.678,37.541 58.166,30.717 51.062,26.844 42.554,26.528 35.184,29.856 c 9.382,-7.237 22.605,-6.744 31.421,1.177 10.102,9.066 10.936,24.596 1.872,34.69 z"
       id="path14"
       inkscape:connector-curvature="0" /></g><g
     id="g16"
     transform="matrix(1.6058093,0,0,1.6058093,-27.086792,-32.443354)"><path
       d="M 72.857,61.662 C 79.677,49.15 75.06,33.47 62.546,26.649 55.442,22.778 46.927,22.461 39.564,25.797 c 9.382,-7.247 22.599,-6.758 31.423,1.17 10.099,9.064 10.929,24.597 1.87,34.695 z"
       id="path18"
       inkscape:connector-curvature="0" /></g></svg>