<?xml version="1.0" encoding="UTF-8" standalone="no"?>
<svg
   xmlns:dc="http://purl.org/dc/elements/1.1/"
   xmlns:cc="http://creativecommons.org/ns#"
   xmlns:rdf="http://www.w3.org/1999/02/22-rdf-syntax-ns#"
   xmlns:svg="http://www.w3.org/2000/svg"
   xmlns="http://www.w3.org/2000/svg"
   xmlns:sodipodi="http://sodipodi.sourceforge.net/DTD/sodipodi-0.dtd"
   xmlns:inkscape="http://www.inkscape.org/namespaces/inkscape"
   version="1.1"
   x="0px"
   y="0px"
   viewBox="0 0 100 100"
   enable-background="new 0 0 100 100"
   xml:space="preserve"
   id="svg2"
   inkscape:version="0.91 r13725"
   sodipodi:docname="flow-time.svg"
   width="100"
   height="100"><metadata
     id="metadata36"><rdf:RDF><cc:Work
         rdf:about=""><dc:format>image/svg+xml</dc:format><dc:type
           rdf:resource="http://purl.org/dc/dcmitype/StillImage" /><dc:title></dc:title></cc:Work></rdf:RDF></metadata><defs
     id="defs34" /><sodipodi:namedview
     pagecolor="#ffffff"
     bordercolor="#666666"
     borderopacity="1"
     objecttolerance="10"
     gridtolerance="10"
     guidetolerance="10"
     inkscape:pageopacity="0"
     inkscape:pageshadow="2"
     inkscape:window-width="1362"
     inkscape:window-height="729"
     id="namedview32"
     showgrid="false"
     inkscape:zoom="1.888"
     inkscape:cx="-22.563559"
     inkscape:cy="62.5"
     inkscape:window-x="0"
     inkscape:window-y="18"
     inkscape:window-maximized="0"
     inkscape:current-layer="svg2" /><g
     id="g4"
     transform="translate(0,-25)"><g
       id="g6"><g
         id="g8"><path
           d="m 388.9,655.9 c -0.6,15.3 -13,28.1 -28.2,29.2 -0.7,0.1 -1.5,0.1 -2.2,0.1 -16.8,0 -30.4,-13.6 -30.4,-30.4 0,-8.1 3.3,-16 9.1,-21.7 l 0.3,-0.3 -2.3,-3.1 9,1.3 c 0.1,0 0.2,0.1 0.2,0.1 0,0.1 0.1,0.2 0.1,0.3 l -1.3,9 -2.3,-3.2 -0.4,0.4 c -4.5,4.7 -6.9,10.8 -6.8,17.3 0.1,12.8 10.1,23.6 22.9,24.6 0.7,0.1 1.3,0.1 2,0.1 13.7,0 24.9,-11.2 24.9,-24.9 0,-10.5 -6.7,-19.9 -16.6,-23.4 l -0.5,-0.2 -4.8,13.3 c -0.1,0.4 0,0.8 0.2,1.1 0.2,0.3 0.6,0.5 1,0.5 l 10.5,0 c 0.2,0 0.4,0.1 0.5,0.3 0,0.1 0.1,0.3 0,0.6 -2,2.9 -6.1,8.1 -10.9,14.1 -3,3.8 -6.4,8.1 -9.8,12.4 -0.2,0.3 -0.5,0.4 -0.7,0.4 -0.3,0 -0.6,-0.2 -0.8,-0.4 -0.1,-0.2 -0.2,-0.5 -0.1,-0.8 l 7.1,-17.9 c 0.2,-0.4 0.1,-0.9 -0.2,-1.3 -0.3,-0.4 -0.7,-0.6 -1.2,-0.6 l -8.9,0 c -0.2,0 -0.4,-0.1 -0.4,-0.2 -0.1,-0.2 -0.1,-0.5 0,-0.7 1.3,-3 2.8,-9 4.2,-14.8 1.1,-4.7 2.2,-9.2 3.1,-11.6 0.2,-0.5 0.7,-0.9 1.3,-0.9 0,0 0.8,0 1.9,0 1.2,0 3,0 4.1,0.1 2.4,0.3 4.4,0.8 6.6,1.5 12.3,4.5 20.3,16.5 19.8,29.7 z"
           id="path10"
           inkscape:connector-curvature="0"
           style="fill:#000000" /></g></g></g><g
     id="g12"
     transform="translate(0,-25)"><g
       id="g14"><g
         id="g16"><path
           d="m 388.9,655.9 c -0.6,15.3 -13,28.1 -28.2,29.2 -0.7,0.1 -1.5,0.1 -2.2,0.1 -16.8,0 -30.4,-13.6 -30.4,-30.4 0,-8.1 3.3,-16 9.1,-21.7 l 0.3,-0.3 -2.3,-3.1 9,1.3 c 0.1,0 0.2,0.1 0.2,0.1 0,0.1 0.1,0.2 0.1,0.3 l -1.3,9 -2.3,-3.2 -0.4,0.4 c -4.5,4.7 -6.9,10.8 -6.8,17.3 0.1,12.8 10.1,23.6 22.9,24.6 0.7,0.1 1.3,0.1 2,0.1 13.7,0 24.9,-11.2 24.9,-24.9 0,-10.5 -6.7,-19.9 -16.6,-23.4 l -0.5,-0.2 -4.8,13.3 c -0.1,0.4 0,0.8 0.2,1.1 0.2,0.3 0.6,0.5 1,0.5 l 10.5,0 c 0.2,0 0.4,0.1 0.5,0.3 0,0.1 0.1,0.3 0,0.6 -2,2.9 -6.1,8.1 -10.9,14.1 -3,3.8 -6.4,8.1 -9.8,12.4 -0.2,0.3 -0.5,0.4 -0.7,0.4 -0.3,0 -0.6,-0.2 -0.8,-0.4 -0.1,-0.2 -0.2,-0.5 -0.1,-0.8 l 7.1,-17.9 c 0.2,-0.4 0.1,-0.9 -0.2,-1.3 -0.3,-0.4 -0.7,-0.6 -1.2,-0.6 l -8.9,0 c -0.2,0 -0.4,-0.1 -0.4,-0.2 -0.1,-0.2 -0.1,-0.5 0,-0.7 1.3,-3 2.8,-9 4.2,-14.8 1.1,-4.7 2.2,-9.2 3.1,-11.6 0.2,-0.5 0.7,-0.9 1.3,-0.9 0,0 0.8,0 1.9,0 1.2,0 3,0 4.1,0.1 2.4,0.3 4.4,0.8 6.6,1.5 12.3,4.5 20.3,16.5 19.8,29.7 z"
           id="path18"
           inkscape:connector-curvature="0"
           style="fill:#000000" /></g></g></g><g
     id="g20"
     transform="matrix(1.1107495,0,0,1.1107495,-5.5537468,-5.4264)"><g
       id="g22"><g
         id="g24"><path
           d="M 95,51.5 C 94.1,74.1 75.8,93.1 53.2,94.7 52.1,94.8 51.1,94.8 50,94.8 25.2,94.8 5,74.6 5,49.8 5,37.8 9.9,26.1 18.5,17.7 L 19,17.3 16.7,14.2 c -0.4,-0.6 0.1,-1.3 0.7,-1.2 l 11.5,1.7 c 0.1,0 0.3,0.1 0.4,0.2 0.1,0.1 0.1,0.3 0.1,0.4 l -1.7,11.5 c -0.1,0.7 -1,0.9 -1.4,0.4 L 24,24.1 23.4,24.7 c -6.6,6.9 -10.2,16 -10.1,25.6 0.1,19 15,35 33.9,36.4 1,0.1 2,0.1 2.9,0.1 C 70.4,86.8 86.9,70.3 86.9,50 86.9,34.4 77.1,20.5 62.4,15.3 L 61.7,15 54.6,34.7 c -0.2,0.5 -0.1,1.1 0.3,1.6 0.3,0.5 0.9,0.7 1.4,0.7 l 15.5,0 c 0.3,0 0.6,0.2 0.8,0.5 0.1,0.1 0.2,0.5 -0.1,0.9 -2.9,4.3 -9,12 -16.1,20.9 -4.5,5.6 -9.5,11.9 -14.5,18.3 -0.3,0.4 -0.7,0.5 -1,0.5 -0.5,0 -0.9,-0.3 -1.2,-0.6 -0.2,-0.3 -0.4,-0.7 -0.2,-1.2 L 50,49.6 c 0.2,-0.7 0.1,-1.4 -0.3,-1.9 -0.4,-0.6 -1.1,-0.9 -1.8,-0.9 L 34.8,46.7 c -0.4,0 -0.5,-0.2 -0.7,-0.3 -0.2,-0.3 -0.2,-0.7 0,-1 2,-4.4 4.1,-13.3 6.2,-21.8 C 42,16.6 43.6,10 45,6.4 45.2,5.5 46,5 46.8,5 c 0,0 1.2,0 2.8,0 1.8,0 4.4,0 6.1,0.2 3.5,0.4 6.5,1.1 9.7,2.3 18.4,6.7 30.3,24.4 29.6,44 z"
           id="path26"
           inkscape:connector-curvature="0" /></g></g></g></svg>