<?xml version="1.0" encoding="UTF-8" standalone="no"?>
<svg
   xmlns:dc="http://purl.org/dc/elements/1.1/"
   xmlns:cc="http://creativecommons.org/ns#"
   xmlns:rdf="http://www.w3.org/1999/02/22-rdf-syntax-ns#"
   xmlns:svg="http://www.w3.org/2000/svg"
   xmlns="http://www.w3.org/2000/svg"
   xmlns:sodipodi="http://sodipodi.sourceforge.net/DTD/sodipodi-0.dtd"
   xmlns:inkscape="http://www.inkscape.org/namespaces/inkscape"
   version="1.1"
   x="0px"
   y="0px"
   viewBox="0 0 100 100"
   id="svg2"
   inkscape:version="0.91 r13725"
   sodipodi:docname="training.svg"
   width="100"
   height="100">
  <metadata
     id="metadata16">
    <rdf:RDF>
      <cc:Work
         rdf:about="">
        <dc:format>image/svg+xml</dc:format>
        <dc:type
           rdf:resource="http://purl.org/dc/dcmitype/StillImage" />
        <dc:title></dc:title>
      </cc:Work>
    </rdf:RDF>
  </metadata>
  <defs
     id="defs14" />
  <sodipodi:namedview
     pagecolor="#ffffff"
     bordercolor="#666666"
     borderopacity="1"
     objecttolerance="10"
     gridtolerance="10"
     guidetolerance="10"
     inkscape:pageopacity="0"
     inkscape:pageshadow="2"
     inkscape:window-width="1362"
     inkscape:window-height="729"
     id="namedview12"
     showgrid="false"
     inkscape:zoom="1.888"
     inkscape:cx="-22.563559"
     inkscape:cy="62.5"
     inkscape:window-x="0"
     inkscape:window-y="18"
     inkscape:window-maximized="0"
     inkscape:current-layer="svg2" />
  <g
     transform="matrix(1.0526321,0,0,1.0526321,-2.6316053,-1005.1186)"
     id="g4">
    <path
       style="color:#000000;display:inline;overflow:visible;visibility:visible;fill:#000000;stroke:none;marker:none;enable-background:accumulate"
       d="m 13.049207,954.8622 c -1.439799,0 -2.59889,1.1591 -2.59889,2.5989 l 0,6.9504 -1.7074095,0 c -0.65623,0 -1.19365,0.5224 -1.19365,1.1786 l 0,0.3022 c 0,0.6562 0.53742,1.1785 1.19365,1.1785 l 1.7074095,0 0,6.7088 c 0,1.4398 1.15909,2.5988 2.59889,2.5988 1.43974,0 2.59886,-1.159 2.59886,-2.5988 l 0,-6.7088 0.60438,0 0,6.7088 c 0,1.4398 1.159071,2.5988 2.59889,2.5988 1.43974,0 2.598871,-1.159 2.598871,-2.5988 l 0,-6.7088 1.31451,0 c 0.0751,0.1629 0.15733,0.3281 0.25689,0.4836 l 16.36381,25.5656 0,28.3761 -3.2335,23.964 c -0.28778,2.1311 1.19303,4.0789 3.32415,4.3666 2.13113,0.2878 4.07905,-1.2081 4.36668,-3.3392 l 3.38459,-24.9914 5.54528,0 3.38457,24.9914 c 0.28779,2.1311 2.23568,3.627 4.3667,3.3392 2.13117,-0.2877 3.61192,-2.2355 3.32413,-4.3666 l -3.23343,-23.964 0,-28.3761 16.36381,-25.5656 c 0.0995,-0.1555 0.18175,-0.3207 0.25689,-0.4836 l 1.31451,0 0,6.7088 c 0,1.4398 1.15907,2.5988 2.59887,2.5988 1.43981,0 2.59888,-1.159 2.59888,-2.5988 l 0,-6.7088 0.60438,0 0,6.7088 c 0,1.4398 1.15907,2.5988 2.59887,2.5988 1.439798,0 2.598888,-1.159 2.598888,-2.5988 l 0,-6.7088 1.70741,0 c 0.656183,0 1.193647,-0.5223 1.193647,-1.1785 l 0,-0.3022 c 0,-0.6562 -0.537464,-1.1786 -1.193647,-1.1786 l -1.70741,0 0,-6.9504 c 0,-1.4398 -1.15909,-2.5989 -2.598888,-2.5989 -1.4398,0 -2.59887,1.1591 -2.59887,2.5989 l 0,6.9504 -0.60438,0 0,-6.9504 c 0,-1.4398 -1.15907,-2.5989 -2.59888,-2.5989 -1.4398,0 -2.59887,1.1591 -2.59887,2.5989 l 0,6.9504 -1.10304,0 c -0.24562,-0.8827 -0.79556,-1.6857 -1.63184,-2.2211 -0.67909,-0.4348 -1.44376,-0.6378 -2.19088,-0.6195 -1.24524,0.031 -2.4483,0.6661 -3.17304,1.7981 l -0.66484,1.0425 -39.57232,0 -0.66484,-1.0425 c -0.7973,-1.2452 -2.177961,-1.8832 -3.550811,-1.783 -0.623999,0.046 -1.247199,0.242 -1.81316,0.6044 -0.83623,0.5354 -1.38622,1.3384 -1.63185,2.2211 l -1.10297,0 0,-6.9504 c 0,-1.4398 -1.15913,-2.5989 -2.59887,-2.5989 -1.43982,0 -2.59889,1.1591 -2.59889,2.5989 l 0,6.9504 -0.60438,0 0,-6.9504 c 0,-1.4398 -1.15912,-2.5989 -2.59886,-2.5989 z m 18.872001,12.2086 36.15753,0 -12.26909,19.1743 -11.61935,0 -12.26909,-19.1743 z m 18.07122,2.2363 c -3.72709,0 -6.73893,3.5874 -6.73893,8.0081 0,4.4208 3.01184,7.9931 6.73893,7.9931 3.7271,0 6.75407,-3.5723 6.75407,-7.9931 0,-4.4207 -3.02697,-8.0081 -6.75407,-8.0081 z"
       visibility="visible"
       display="inline"
       overflow="visible"
       id="path6"
       inkscape:connector-curvature="0" />
  </g>
</svg>
