<?xml version="1.0" encoding="UTF-8" standalone="no"?>
<!-- Created with Inkscape (http://www.inkscape.org/) -->

<svg
   xmlns:dc="http://purl.org/dc/elements/1.1/"
   xmlns:cc="http://creativecommons.org/ns#"
   xmlns:rdf="http://www.w3.org/1999/02/22-rdf-syntax-ns#"
   xmlns:svg="http://www.w3.org/2000/svg"
   xmlns="http://www.w3.org/2000/svg"
   xmlns:sodipodi="http://sodipodi.sourceforge.net/DTD/sodipodi-0.dtd"
   xmlns:inkscape="http://www.inkscape.org/namespaces/inkscape"
   width="100"
   height="100"
   viewBox="0 0 100 100"
   id="svg2"
   version="1.1"
   inkscape:version="0.91 r13725"
   sodipodi:docname="concept-while3.svg">
  <defs
     id="defs4">
    <inkscape:perspective
       sodipodi:type="inkscape:persp3d"
       inkscape:vp_x="0 : 50 : 1"
       inkscape:vp_y="0 : 1000 : 0"
       inkscape:vp_z="100 : 50 : 1"
       inkscape:persp3d-origin="50 : 33.333333 : 1"
       id="perspective7117" />
  </defs>
  <sodipodi:namedview
     id="base"
     pagecolor="#ffffff"
     bordercolor="#666666"
     borderopacity="1.0"
     inkscape:pageopacity="0.0"
     inkscape:pageshadow="2"
     inkscape:zoom="3.959798"
     inkscape:cx="4.827396"
     inkscape:cy="65.084136"
     inkscape:document-units="px"
     inkscape:current-layer="layer1"
     showgrid="false"
     units="px"
     inkscape:window-width="1362"
     inkscape:window-height="729"
     inkscape:window-x="0"
     inkscape:window-y="18"
     inkscape:window-maximized="0" />
  <metadata
     id="metadata7">
    <rdf:RDF>
      <cc:Work
         rdf:about="">
        <dc:format>image/svg+xml</dc:format>
        <dc:type
           rdf:resource="http://purl.org/dc/dcmitype/StillImage" />
        <dc:title></dc:title>
      </cc:Work>
    </rdf:RDF>
  </metadata>
  <g
     inkscape:label="Layer 1"
     inkscape:groupmode="layer"
     id="layer1"
     transform="translate(0,-952.3622)"
     style="display:inline">
    <path
       style="opacity:1;fill:#333333;stroke:none;stroke-width:4.63199997;stroke-miterlimit:4;stroke-dasharray:none"
       d="M 19.944133,962.10629 A 50.001455,50.000493 54.297911 0 0 2.9695186,1020.568 50.001455,50.000493 54.297911 0 0 55.045538,1052.0985 50.001455,50.000493 54.297911 0 0 98.977381,1009.9559 50.001455,50.000493 54.297911 0 0 69.643062,956.61301 l -6.345015,14.4595 a 35.018766,34.076746 54.297911 0 1 13.864341,11.47692 35.018766,34.076746 54.297911 0 1 -7.236849,48.32467 35.018766,34.076746 54.297911 0 1 -48.109462,-8.5513 35.018766,34.076746 54.297911 0 1 7.000445,-48.14193 l -8.872389,-12.07458 z"
       id="path3403"
       inkscape:connector-curvature="0" />
    <text
       xml:space="preserve"
       style="font-style:normal;font-variant:normal;font-weight:bold;font-stretch:normal;font-size:62.88697052px;line-height:125%;font-family:sans-serif;-inkscape-font-specification:'sans-serif Bold';letter-spacing:0px;word-spacing:0px;fill:#333333;fill-opacity:1;stroke:none;stroke-width:1px;stroke-linecap:butt;stroke-linejoin:miter;stroke-opacity:1"
       x="30.426313"
       y="1050.5828"
       id="text4252"
       sodipodi:linespacing="125%"
       transform="scale(1.024825,0.97577635)"><tspan
         sodipodi:role="line"
         id="tspan4254"
         x="30.426313"
         y="1050.5828">?</tspan></text>
    <path
       style="opacity:0;fill:#333333;stroke:none;stroke-width:12.04199982;stroke-miterlimit:4;stroke-dasharray:none"
       id="path4288"
       sodipodi:type="arc"
       sodipodi:cx="129.10715"
       sodipodi:cy="999.68365"
       sodipodi:rx="19.285715"
       sodipodi:ry="11.785714"
       sodipodi:start="0"
       sodipodi:end="5.2359878"
       d="m 148.39286,999.68365 a 19.285715,11.785714 0 0 1 -14.2942,11.38415 19.285715,11.785714 0 0 1 -21.69343,-5.4913 19.285715,11.785714 0 0 1 3.06486,-14.2266 19.285715,11.785714 0 0 1 23.27992,-1.87297 l -9.64286,10.20672 z" />
    <path
       style="opacity:0;fill:#000000;stroke:#000000;stroke-width:12.04199982;stroke-miterlimit:4;stroke-dasharray:none;stroke-opacity:1"
       id="path4290"
       sodipodi:type="arc"
       sodipodi:cx="153.03572"
       sodipodi:cy="1016.0229"
       sodipodi:rx="24.821428"
       sodipodi:ry="15.625"
       sodipodi:start="0"
       sodipodi:end="5.2359878"
       d="m 177.85715,1016.0229 a 24.821428,15.625 0 0 1 -18.39717,15.0926 24.821428,15.625 0 0 1 -27.92025,-7.2801 24.821428,15.625 0 0 1 3.94459,-18.8611 24.821428,15.625 0 0 1 29.96212,-2.4831 l -12.41072,13.5317 z" />
    <rect
       style="opacity:0;fill:#000000;stroke:#000000;stroke-width:12.04199982;stroke-miterlimit:4;stroke-dasharray:none;stroke-opacity:1"
       id="rect4292"
       width="17.142857"
       height="8.2142859"
       x="85.89286"
       y="1043.255" />
    <rect
       style="opacity:0;fill:#000000;stroke:#000000;stroke-width:12.04199982;stroke-miterlimit:4;stroke-dasharray:none;stroke-opacity:1"
       id="rect4294"
       width="11.607142"
       height="6.9642859"
       x="3.2142856"
       y="960.93365" />
    <rect
       style="opacity:0;fill:#808000;stroke:#000000;stroke-width:12.04199982;stroke-miterlimit:4;stroke-dasharray:none;stroke-opacity:1"
       id="rect4789"
       width="20.178572"
       height="10.178572"
       x="-26.25"
       y="978.25507" />
    <rect
       style="opacity:0;fill:#808000;stroke:#000000;stroke-width:12.04199982;stroke-miterlimit:4;stroke-dasharray:none;stroke-opacity:1"
       id="rect4791"
       width="15.892856"
       height="7.6785803"
       x="0.89285713"
       y="957.89789" />
    <path
       sodipodi:type="star"
       style="opacity:1;fill:#333333;fill-opacity:1;stroke:none;stroke-width:3;stroke-miterlimit:4;stroke-dasharray:none;stroke-opacity:1"
       id="path7123"
       sodipodi:sides="3"
       sodipodi:cx="63.134537"
       sodipodi:cy="961.57477"
       sodipodi:r1="9.7038412"
       sodipodi:r2="4.8519206"
       sodipodi:arg1="-0.56273722"
       sodipodi:arg2="0.48446033"
       inkscape:flatsided="true"
       inkscape:rounded="0"
       inkscape:randomized="0"
       d="m 71.342026,956.39774 -7.827793,14.87344 -8.966882,-14.21579 z"
       inkscape:transform-center-x="0.67221753"
       inkscape:transform-center-y="1.6932427"
       transform="matrix(0.9950045,-0.09506421,0.09968915,0.92995642,-96.62096,73.937197)" />
  </g>
</svg>
