<?xml version="1.0" encoding="UTF-8"?><svg xmlns="http://www.w3.org/2000/svg" xmlns:xlink="http://www.w3.org/1999/xlink" fill-opacity="1" color-rendering="auto" color-interpolation="auto" text-rendering="auto" stroke="black" stroke-linecap="square" width="802" stroke-miterlimit="10" shape-rendering="auto" stroke-opacity="1" fill="black" stroke-dasharray="none" font-weight="normal" stroke-width="1" height="895" font-family="'Dialog'" font-style="normal" stroke-linejoin="miter" font-size="12px" stroke-dashoffset="0" image-rendering="auto">
  <!--Generated by ySVG 2.5-->
  <defs id="genericDefs"/>
  <g>
    <defs id="defs1">
      <clipPath clipPathUnits="userSpaceOnUse" id="clipPath1">
        <path d="M0 0 L802 0 L802 895 L0 895 L0 0 Z"/>
      </clipPath>
      <clipPath clipPathUnits="userSpaceOnUse" id="clipPath2">
        <path d="M720 123 L1522 123 L1522 1018 L720 1018 L720 123 Z"/>
      </clipPath>
    </defs>
    <g fill="white" text-rendering="geometricPrecision" shape-rendering="geometricPrecision" transform="translate(-720,-123)" stroke="white">
      <rect x="720" width="802" height="895" y="123" clip-path="url(#clipPath2)" stroke="none"/>
    </g>
    <g fill="rgb(245,245,245)" text-rendering="geometricPrecision" shape-rendering="geometricPrecision" transform="matrix(1,0,0,1,-720,-123)" stroke="rgb(245,245,245)">
      <rect x="775" y="680.7757" clip-path="url(#clipPath2)" width="458.0449" rx="4" ry="4" height="110.7578" stroke="none"/>
      <rect x="775" y="680.7757" clip-path="url(#clipPath2)" fill="rgb(235,235,235)" width="458.0449" height="20.7578" stroke="none"/>
    </g>
    <g font-size="15px" stroke-linecap="butt" transform="matrix(1,0,0,1,-720,-123)" text-rendering="geometricPrecision" font-family="sans-serif" shape-rendering="geometricPrecision" stroke-miterlimit="1.45">
      <text x="1194.3652" xml:space="preserve" y="696.6002" clip-path="url(#clipPath2)" stroke="none">maze</text>
      <rect x="775" y="680.7757" clip-path="url(#clipPath2)" fill="none" width="458.0449" stroke-dasharray="6,2" rx="4" ry="4" height="110.7578"/>
    </g>
    <g fill="rgb(255,204,0)" text-rendering="geometricPrecision" shape-rendering="geometricPrecision" transform="matrix(1,0,0,1,-720,-123)" stroke="rgb(255,204,0)">
      <rect x="1025.6875" y="706.5335" clip-path="url(#clipPath2)" width="79.3613" rx="4" ry="4" height="30" stroke="none"/>
    </g>
    <g text-rendering="geometricPrecision" stroke-miterlimit="1.45" shape-rendering="geometricPrecision" font-family="sans-serif" transform="matrix(1,0,0,1,-720,-123)" stroke-linecap="butt">
      <text x="1032.6875" xml:space="preserve" y="725.89" clip-path="url(#clipPath2)" stroke="none">maze model</text>
      <rect x="1025.6875" y="706.5335" clip-path="url(#clipPath2)" fill="none" width="79.3613" rx="4" ry="4" height="30"/>
    </g>
    <g fill="rgb(255,204,0)" text-rendering="geometricPrecision" shape-rendering="geometricPrecision" transform="matrix(1,0,0,1,-720,-123)" stroke="rgb(255,204,0)">
      <rect x="1152.6914" y="706.5335" clip-path="url(#clipPath2)" width="75.3535" rx="4" ry="4" height="30" stroke="none"/>
    </g>
    <g text-rendering="geometricPrecision" stroke-miterlimit="1.45" shape-rendering="geometricPrecision" font-family="sans-serif" transform="matrix(1,0,0,1,-720,-123)" stroke-linecap="butt">
      <text x="1159.6914" xml:space="preserve" y="725.89" clip-path="url(#clipPath2)" stroke="none">grid service</text>
      <rect x="1152.6914" y="706.5335" clip-path="url(#clipPath2)" fill="none" width="75.3535" rx="4" ry="4" height="30"/>
    </g>
    <g fill="rgb(255,204,0)" text-rendering="geometricPrecision" shape-rendering="geometricPrecision" transform="matrix(1,0,0,1,-720,-123)" stroke="rgb(255,204,0)">
      <rect x="894.6875" y="706.5335" clip-path="url(#clipPath2)" width="91.3613" rx="4" ry="4" height="30" stroke="none"/>
    </g>
    <g text-rendering="geometricPrecision" stroke-miterlimit="1.45" shape-rendering="geometricPrecision" font-family="sans-serif" transform="matrix(1,0,0,1,-720,-123)" stroke-linecap="butt">
      <text x="901.6875" xml:space="preserve" y="725.89" clip-path="url(#clipPath2)" stroke="none">maze directive</text>
      <rect x="894.6875" y="706.5335" clip-path="url(#clipPath2)" fill="none" width="91.3613" rx="4" ry="4" height="30"/>
    </g>
    <g fill="rgb(255,204,0)" text-rendering="geometricPrecision" shape-rendering="geometricPrecision" transform="matrix(1,0,0,1,-720,-123)" stroke="rgb(255,204,0)">
      <rect x="780" y="756.5335" clip-path="url(#clipPath2)" width="84.6875" rx="4" ry="4" height="30" stroke="none"/>
    </g>
    <g text-rendering="geometricPrecision" stroke-miterlimit="1.45" shape-rendering="geometricPrecision" font-family="sans-serif" transform="matrix(1,0,0,1,-720,-123)" stroke-linecap="butt">
      <text x="787" xml:space="preserve" y="775.89" clip-path="url(#clipPath2)" stroke="none">maze service</text>
      <rect x="780" y="756.5335" clip-path="url(#clipPath2)" fill="none" width="84.6875" rx="4" ry="4" height="30"/>
      <path fill="none" d="M1152.6449 721.5335 L1113.0488 721.5335" clip-path="url(#clipPath2)"/>
      <path d="M1105.0488 721.5335 L1117.0488 726.5335 L1114.0488 721.5335 L1117.0488 716.5335 Z" clip-path="url(#clipPath2)" stroke="none"/>
      <path fill="none" d="M986.0488 721.5335 L1017.6488 721.5335" clip-path="url(#clipPath2)"/>
      <path d="M1025.6488 721.5335 L1013.6488 716.5335 L1016.6488 721.5335 L1013.6488 726.5335 Z" clip-path="url(#clipPath2)" stroke="none"/>
      <path fill="none" d="M894.6412 721.5335 L847.3438 721.5335 L847.3438 748.4993" clip-path="url(#clipPath2)"/>
      <path d="M847.3438 756.4993 L852.3438 744.4993 L847.3438 747.4993 L842.3438 744.4993 Z" clip-path="url(#clipPath2)" stroke="none"/>
      <path fill="none" d="M864.6915 767.5706 L1065.3682 767.5706 L1065.3682 744.5335" clip-path="url(#clipPath2)"/>
      <path d="M1065.3682 736.5335 L1060.3682 748.5335 L1065.3682 745.5335 L1070.3682 748.5335 Z" clip-path="url(#clipPath2)" stroke="none"/>
      <path fill="none" d="M864.7016 776.7955 L1190.3682 776.7955 L1190.3682 744.5335" clip-path="url(#clipPath2)"/>
      <path d="M1190.3682 736.5335 L1185.3682 748.5335 L1190.3682 745.5335 L1195.3682 748.5335 Z" clip-path="url(#clipPath2)" stroke="none"/>
    </g>
    <g fill="rgb(245,245,245)" text-rendering="geometricPrecision" shape-rendering="geometricPrecision" transform="matrix(1,0,0,1,-720,-123)" stroke="rgb(245,245,245)">
      <rect x="775" y="158.5022" clip-path="url(#clipPath2)" width="438.0527" rx="4" ry="4" height="120.7578" stroke="none"/>
      <rect x="775" y="158.5022" clip-path="url(#clipPath2)" fill="rgb(235,235,235)" width="438.0527" height="20.7578" stroke="none"/>
    </g>
    <g font-size="15px" stroke-linecap="butt" transform="matrix(1,0,0,1,-720,-123)" text-rendering="geometricPrecision" font-family="sans-serif" shape-rendering="geometricPrecision" stroke-miterlimit="1.45">
      <text x="1156.0405" xml:space="preserve" y="174.3267" clip-path="url(#clipPath2)" stroke="none">services</text>
      <rect x="775" y="158.5022" clip-path="url(#clipPath2)" fill="none" width="438.0527" stroke-dasharray="6,2" rx="4" ry="4" height="120.7578"/>
    </g>
    <g fill="rgb(255,204,0)" text-rendering="geometricPrecision" shape-rendering="geometricPrecision" transform="matrix(1,0,0,1,-720,-123)" stroke="rgb(255,204,0)">
      <rect x="1081.9922" y="184.2601" clip-path="url(#clipPath2)" width="126.0605" rx="4" ry="4" height="30" stroke="none"/>
    </g>
    <g text-rendering="geometricPrecision" stroke-miterlimit="1.45" shape-rendering="geometricPrecision" font-family="sans-serif" transform="matrix(1,0,0,1,-720,-123)" stroke-linecap="butt">
      <text x="1088.9922" xml:space="preserve" y="203.6165" clip-path="url(#clipPath2)" stroke="none">feedbackDao service</text>
      <rect x="1081.9922" y="184.2601" clip-path="url(#clipPath2)" fill="none" width="126.0605" rx="4" ry="4" height="30"/>
    </g>
    <g fill="rgb(255,204,0)" text-rendering="geometricPrecision" shape-rendering="geometricPrecision" transform="matrix(1,0,0,1,-720,-123)" stroke="rgb(255,204,0)">
      <rect x="1090.0049" y="244.2601" clip-path="url(#clipPath2)" width="110.0352" rx="4" ry="4" height="30" stroke="none"/>
    </g>
    <g text-rendering="geometricPrecision" stroke-miterlimit="1.45" shape-rendering="geometricPrecision" font-family="sans-serif" transform="matrix(1,0,0,1,-720,-123)" stroke-linecap="butt">
      <text x="1097.0049" xml:space="preserve" y="263.6165" clip-path="url(#clipPath2)" stroke="none">interpreter service</text>
      <rect x="1090.0049" y="244.2601" clip-path="url(#clipPath2)" fill="none" width="110.0352" rx="4" ry="4" height="30"/>
    </g>
    <g fill="rgb(255,204,0)" text-rendering="geometricPrecision" shape-rendering="geometricPrecision" transform="matrix(1,0,0,1,-720,-123)" stroke="rgb(255,204,0)">
      <rect x="780" y="184.2601" clip-path="url(#clipPath2)" width="119.375" rx="4" ry="4" height="30" stroke="none"/>
    </g>
    <g text-rendering="geometricPrecision" stroke-miterlimit="1.45" shape-rendering="geometricPrecision" font-family="sans-serif" transform="matrix(1,0,0,1,-720,-123)" stroke-linecap="butt">
      <text x="787" xml:space="preserve" y="203.6165" clip-path="url(#clipPath2)" stroke="none">practiceDao service</text>
      <rect x="780" y="184.2601" clip-path="url(#clipPath2)" fill="none" width="119.375" rx="4" ry="4" height="30"/>
    </g>
    <g fill="rgb(255,204,0)" text-rendering="geometricPrecision" shape-rendering="geometricPrecision" transform="matrix(1,0,0,1,-720,-123)" stroke="rgb(255,204,0)">
      <rect x="946.6699" y="184.2601" clip-path="url(#clipPath2)" width="88.0273" rx="4" ry="4" height="30" stroke="none"/>
    </g>
    <g text-rendering="geometricPrecision" stroke-miterlimit="1.45" shape-rendering="geometricPrecision" font-family="sans-serif" transform="matrix(1,0,0,1,-720,-123)" stroke-linecap="butt">
      <text x="953.6699" xml:space="preserve" y="203.6165" clip-path="url(#clipPath2)" stroke="none">service model</text>
      <rect x="946.6699" y="184.2601" clip-path="url(#clipPath2)" fill="none" width="88.0273" rx="4" ry="4" height="30"/>
    </g>
    <g fill="rgb(255,204,0)" text-rendering="geometricPrecision" shape-rendering="geometricPrecision" transform="matrix(1,0,0,1,-720,-123)" stroke="rgb(255,204,0)">
      <rect x="790.0049" y="244.2601" clip-path="url(#clipPath2)" width="99.3652" rx="4" ry="4" height="30" stroke="none"/>
    </g>
    <g text-rendering="geometricPrecision" stroke-miterlimit="1.45" shape-rendering="geometricPrecision" font-family="sans-serif" transform="matrix(1,0,0,1,-720,-123)" stroke-linecap="butt">
      <text x="797.0049" xml:space="preserve" y="263.6165" clip-path="url(#clipPath2)" stroke="none">taskDao service</text>
      <rect x="790.0049" y="244.2601" clip-path="url(#clipPath2)" fill="none" width="99.3652" rx="4" ry="4" height="30"/>
    </g>
    <g fill="rgb(255,204,0)" text-rendering="geometricPrecision" shape-rendering="geometricPrecision" transform="matrix(1,0,0,1,-720,-123)" stroke="rgb(255,204,0)">
      <rect x="940.333" y="244.2601" clip-path="url(#clipPath2)" width="100.7012" rx="4" ry="4" height="30" stroke="none"/>
    </g>
    <g text-rendering="geometricPrecision" stroke-miterlimit="1.45" shape-rendering="geometricPrecision" font-family="sans-serif" transform="matrix(1,0,0,1,-720,-123)" stroke-linecap="butt">
      <text x="947.333" xml:space="preserve" y="263.6165" clip-path="url(#clipPath2)" stroke="none">userDao service</text>
      <rect x="940.333" y="244.2601" clip-path="url(#clipPath2)" fill="none" width="100.7012" rx="4" ry="4" height="30"/>
      <path fill="none" d="M1200.0262 250.8288 L1233.0527 250.8288 L1233.0527 138.5022 L735 138.5022 L735 776.8709 L771.9759 776.8709" clip-path="url(#clipPath2)"/>
      <path d="M779.9759 776.8709 L767.9759 771.8709 L770.9759 776.8709 L767.9759 781.8709 Z" clip-path="url(#clipPath2)" stroke="none"/>
    </g>
    <g fill="rgb(245,245,245)" text-rendering="geometricPrecision" shape-rendering="geometricPrecision" transform="matrix(1,0,0,1,-720,-123)" stroke="rgb(245,245,245)">
      <rect x="775" y="309.2601" clip-path="url(#clipPath2)" width="711.4414" rx="4" ry="4" height="100.7578" stroke="none"/>
      <rect x="775" y="309.2601" clip-path="url(#clipPath2)" fill="rgb(235,235,235)" width="711.4414" height="20.7578" stroke="none"/>
    </g>
    <g font-size="15px" stroke-linecap="butt" transform="matrix(1,0,0,1,-720,-123)" text-rendering="geometricPrecision" font-family="sans-serif" shape-rendering="geometricPrecision" stroke-miterlimit="1.45">
      <text x="1369.3926" xml:space="preserve" y="325.0845" clip-path="url(#clipPath2)" stroke="none">task-environment</text>
      <rect x="775" y="309.2601" clip-path="url(#clipPath2)" fill="none" width="711.4414" stroke-dasharray="6,2" rx="4" ry="4" height="100.7578"/>
    </g>
    <g fill="rgb(255,204,0)" text-rendering="geometricPrecision" shape-rendering="geometricPrecision" transform="matrix(1,0,0,1,-720,-123)" stroke="rgb(255,204,0)">
      <rect x="1325.3809" y="335.0179" clip-path="url(#clipPath2)" width="156.0605" rx="4" ry="4" height="30" stroke="none"/>
    </g>
    <g text-rendering="geometricPrecision" stroke-miterlimit="1.45" shape-rendering="geometricPrecision" font-family="sans-serif" transform="matrix(1,0,0,1,-720,-123)" stroke-linecap="butt">
      <text x="1332.3809" xml:space="preserve" y="354.3743" clip-path="url(#clipPath2)" stroke="none">task-environment controler</text>
      <rect x="1325.3809" y="335.0179" clip-path="url(#clipPath2)" fill="none" width="156.0605" rx="4" ry="4" height="30"/>
    </g>
    <g fill="rgb(255,204,0)" text-rendering="geometricPrecision" shape-rendering="geometricPrecision" transform="matrix(1,0,0,1,-720,-123)" stroke="rgb(255,204,0)">
      <rect x="1133.7217" y="335.0179" clip-path="url(#clipPath2)" width="139.3789" rx="4" ry="4" height="30" stroke="none"/>
    </g>
    <g text-rendering="geometricPrecision" stroke-miterlimit="1.45" shape-rendering="geometricPrecision" font-family="sans-serif" transform="matrix(1,0,0,1,-720,-123)" stroke-linecap="butt">
      <text x="1140.7217" xml:space="preserve" y="354.3743" clip-path="url(#clipPath2)" stroke="none">task-environment driver</text>
      <rect x="1133.7217" y="335.0179" clip-path="url(#clipPath2)" fill="none" width="139.3789" rx="4" ry="4" height="30"/>
    </g>
    <g fill="rgb(255,204,0)" text-rendering="geometricPrecision" shape-rendering="geometricPrecision" transform="matrix(1,0,0,1,-720,-123)" stroke="rgb(255,204,0)">
      <rect x="957.3828" y="335.0179" clip-path="url(#clipPath2)" width="142.0566" rx="4" ry="4" height="30" stroke="none"/>
    </g>
    <g text-rendering="geometricPrecision" stroke-miterlimit="1.45" shape-rendering="geometricPrecision" font-family="sans-serif" transform="matrix(1,0,0,1,-720,-123)" stroke-linecap="butt">
      <text x="964.3828" xml:space="preserve" y="354.3743" clip-path="url(#clipPath2)" stroke="none">task-environment model</text>
      <rect x="957.3828" y="335.0179" clip-path="url(#clipPath2)" fill="none" width="142.0566" rx="4" ry="4" height="30"/>
    </g>
    <g fill="rgb(255,204,0)" text-rendering="geometricPrecision" shape-rendering="geometricPrecision" transform="matrix(1,0,0,1,-720,-123)" stroke="rgb(255,204,0)">
      <rect x="780" y="375.0179" clip-path="url(#clipPath2)" width="147.3828" rx="4" ry="4" height="30" stroke="none"/>
    </g>
    <g text-rendering="geometricPrecision" stroke-miterlimit="1.45" shape-rendering="geometricPrecision" font-family="sans-serif" transform="matrix(1,0,0,1,-720,-123)" stroke-linecap="butt">
      <text x="787" xml:space="preserve" y="394.3743" clip-path="url(#clipPath2)" stroke="none">task-environment service</text>
      <rect x="780" y="375.0179" clip-path="url(#clipPath2)" fill="none" width="147.3828" rx="4" ry="4" height="30"/>
      <path fill="none" d="M1348.7905 335.0307 L1348.7905 270.7995 L1207.9763 270.7995" clip-path="url(#clipPath2)"/>
      <path d="M1199.9763 270.7995 L1211.9763 275.7995 L1208.9763 270.7995 L1211.9763 265.7995 Z" clip-path="url(#clipPath2)" stroke="none"/>
      <path fill="none" d="M1403.4111 365.0179 L1403.4111 385.0179 L935.3828 385.0179" clip-path="url(#clipPath2)"/>
      <path d="M927.3828 385.0179 L939.3828 390.0179 L936.3828 385.0179 L939.3828 380.0179 Z" clip-path="url(#clipPath2)" stroke="none"/>
      <path fill="none" d="M779.9512 390.0179 L755 390.0179 L755 763.5095 L771.9699 763.5095" clip-path="url(#clipPath2)"/>
      <path d="M779.9699 763.5095 L767.9699 758.5095 L770.9699 763.5095 L767.9699 768.5095 Z" clip-path="url(#clipPath2)" stroke="none"/>
      <path fill="none" d="M836.1303 375.0229 L836.1303 282.2317" clip-path="url(#clipPath2)"/>
      <path d="M836.1303 274.2317 L831.1303 286.2317 L836.1303 283.2317 L841.1303 286.2317 Z" clip-path="url(#clipPath2)" stroke="none"/>
      <path fill="none" d="M853.6914 375.0089 L853.6914 294.2601 L1119.9801 294.2601 L1119.9801 282.2653" clip-path="url(#clipPath2)"/>
      <path d="M1119.9801 274.2653 L1114.9801 286.2653 L1119.9801 283.2653 L1124.9801 286.2653 Z" clip-path="url(#clipPath2)" stroke="none"/>
    </g>
    <g fill="rgb(245,245,245)" text-rendering="geometricPrecision" shape-rendering="geometricPrecision" transform="matrix(1,0,0,1,-720,-123)" stroke="rgb(245,245,245)">
      <rect x="775" y="440.0179" clip-path="url(#clipPath2)" width="479.7158" rx="4" ry="4" height="210.7578" stroke="none"/>
      <rect x="775" y="440.0179" clip-path="url(#clipPath2)" fill="rgb(235,235,235)" width="479.7158" height="20.7578" stroke="none"/>
    </g>
    <g font-size="15px" stroke-linecap="butt" transform="matrix(1,0,0,1,-720,-123)" text-rendering="geometricPrecision" font-family="sans-serif" shape-rendering="geometricPrecision" stroke-miterlimit="1.45">
      <text x="1181.019" xml:space="preserve" y="455.8423" clip-path="url(#clipPath2)" stroke="none">workspace</text>
      <rect x="775" y="440.0179" clip-path="url(#clipPath2)" fill="none" width="479.7158" stroke-dasharray="6,2" rx="4" ry="4" height="210.7578"/>
    </g>
    <g fill="rgb(255,204,0)" text-rendering="geometricPrecision" shape-rendering="geometricPrecision" transform="matrix(1,0,0,1,-720,-123)" stroke="rgb(255,204,0)">
      <rect x="1150.0166" y="540.7757" clip-path="url(#clipPath2)" width="92.0234" rx="4" ry="4" height="30" stroke="none"/>
    </g>
    <g text-rendering="geometricPrecision" stroke-miterlimit="1.45" shape-rendering="geometricPrecision" font-family="sans-serif" transform="matrix(1,0,0,1,-720,-123)" stroke-linecap="butt">
      <text x="1157.0166" xml:space="preserve" y="560.1321" clip-path="url(#clipPath2)" stroke="none">blockly service</text>
      <rect x="1150.0166" y="540.7757" clip-path="url(#clipPath2)" fill="none" width="92.0234" rx="4" ry="4" height="30"/>
    </g>
    <g fill="rgb(255,204,0)" text-rendering="geometricPrecision" shape-rendering="geometricPrecision" transform="matrix(1,0,0,1,-720,-123)" stroke="rgb(255,204,0)">
      <rect x="964.6777" y="540.7757" clip-path="url(#clipPath2)" width="112.7012" rx="4" ry="4" height="30" stroke="none"/>
    </g>
    <g text-rendering="geometricPrecision" stroke-miterlimit="1.45" shape-rendering="geometricPrecision" font-family="sans-serif" transform="matrix(1,0,0,1,-720,-123)" stroke-linecap="butt">
      <text x="971.6777" xml:space="preserve" y="560.1321" clip-path="url(#clipPath2)" stroke="none">workspace service</text>
      <rect x="964.6777" y="540.7757" clip-path="url(#clipPath2)" fill="none" width="112.7012" rx="4" ry="4" height="30"/>
    </g>
    <g fill="rgb(255,204,0)" text-rendering="geometricPrecision" shape-rendering="geometricPrecision" transform="matrix(1,0,0,1,-720,-123)" stroke="rgb(255,204,0)">
      <rect x="802.3486" y="465.7757" clip-path="url(#clipPath2)" width="87.3594" rx="4" ry="4" height="30" stroke="none"/>
    </g>
    <g text-rendering="geometricPrecision" stroke-miterlimit="1.45" shape-rendering="geometricPrecision" font-family="sans-serif" transform="matrix(1,0,0,1,-720,-123)" stroke-linecap="butt">
      <text x="809.3486" xml:space="preserve" y="485.1321" clip-path="url(#clipPath2)" stroke="none">blocks factory</text>
      <rect x="802.3486" y="465.7757" clip-path="url(#clipPath2)" fill="none" width="87.3594" rx="4" ry="4" height="30"/>
    </g>
    <g fill="rgb(255,204,0)" text-rendering="geometricPrecision" shape-rendering="geometricPrecision" transform="matrix(1,0,0,1,-720,-123)" stroke="rgb(255,204,0)">
      <rect x="782.3359" y="615.7757" clip-path="url(#clipPath2)" width="127.3848" rx="4" ry="4" height="30" stroke="none"/>
    </g>
    <g text-rendering="geometricPrecision" stroke-miterlimit="1.45" shape-rendering="geometricPrecision" font-family="sans-serif" transform="matrix(1,0,0,1,-720,-123)" stroke-linecap="butt">
      <text x="789.3359" xml:space="preserve" y="635.1321" clip-path="url(#clipPath2)" stroke="none">blocksOrder constant</text>
      <rect x="782.3359" y="615.7757" clip-path="url(#clipPath2)" fill="none" width="127.3848" rx="4" ry="4" height="30"/>
    </g>
    <g fill="rgb(255,204,0)" text-rendering="geometricPrecision" shape-rendering="geometricPrecision" transform="matrix(1,0,0,1,-720,-123)" stroke="rgb(255,204,0)">
      <rect x="799.0088" y="540.7757" clip-path="url(#clipPath2)" width="94.0391" rx="4" ry="4" height="30" stroke="none"/>
    </g>
    <g text-rendering="geometricPrecision" stroke-miterlimit="1.45" shape-rendering="geometricPrecision" font-family="sans-serif" transform="matrix(1,0,0,1,-720,-123)" stroke-linecap="butt">
      <text x="806.0088" xml:space="preserve" y="560.1321" clip-path="url(#clipPath2)" stroke="none">toolbox service</text>
      <rect x="799.0088" y="540.7757" clip-path="url(#clipPath2)" fill="none" width="94.0391" rx="4" ry="4" height="30"/>
    </g>
    <g fill="rgb(255,204,0)" text-rendering="geometricPrecision" shape-rendering="geometricPrecision" transform="matrix(1,0,0,1,-720,-123)" stroke="rgb(255,204,0)">
      <rect x="961.3408" y="615.7757" clip-path="url(#clipPath2)" width="119.375" rx="4" ry="4" height="30" stroke="none"/>
    </g>
    <g text-rendering="geometricPrecision" stroke-miterlimit="1.45" shape-rendering="geometricPrecision" font-family="sans-serif" transform="matrix(1,0,0,1,-720,-123)" stroke-linecap="butt">
      <text x="968.3408" xml:space="preserve" y="635.1321" clip-path="url(#clipPath2)" stroke="none">workspace directive</text>
      <rect x="961.3408" y="615.7757" clip-path="url(#clipPath2)" fill="none" width="119.375" rx="4" ry="4" height="30"/>
    </g>
    <g fill="rgb(255,204,0)" text-rendering="geometricPrecision" shape-rendering="geometricPrecision" transform="matrix(1,0,0,1,-720,-123)" stroke="rgb(255,204,0)">
      <rect x="1142.3408" y="615.7757" clip-path="url(#clipPath2)" width="107.375" rx="4" ry="4" height="30" stroke="none"/>
    </g>
    <g text-rendering="geometricPrecision" stroke-miterlimit="1.45" shape-rendering="geometricPrecision" font-family="sans-serif" transform="matrix(1,0,0,1,-720,-123)" stroke-linecap="butt">
      <text x="1149.3408" xml:space="preserve" y="635.1321" clip-path="url(#clipPath2)" stroke="none">workspace model</text>
      <rect x="1142.3408" y="615.7757" clip-path="url(#clipPath2)" fill="none" width="107.375" rx="4" ry="4" height="30"/>
      <path fill="none" d="M1200.0045 259.1214 L1506.4414 259.1214 L1506.4414 425.0179 L1033.136 425.0179 L1033.136 532.7502" clip-path="url(#clipPath2)"/>
      <path d="M1033.136 540.7502 L1038.136 528.7502 L1033.136 531.7502 L1028.136 528.7502 Z" clip-path="url(#clipPath2)" stroke="none"/>
      <path fill="none" d="M927.4149 395.8921 L1013.1359 395.8921 L1013.1359 532.7371" clip-path="url(#clipPath2)"/>
      <path d="M1013.1359 540.7371 L1018.1359 528.7371 L1013.1359 531.7371 L1008.1359 528.7371 Z" clip-path="url(#clipPath2)" stroke="none"/>
      <path fill="none" d="M1077.3789 555.7757 L1141.9811 555.7757" clip-path="url(#clipPath2)"/>
      <path d="M1149.9811 555.7757 L1137.9811 550.7757 L1140.9811 555.7757 L1137.9811 560.7757 Z" clip-path="url(#clipPath2)" stroke="none"/>
      <path fill="none" d="M964.6428 555.7757 L901.0479 555.7757" clip-path="url(#clipPath2)"/>
      <path d="M893.0479 555.7757 L905.0479 560.7757 L902.0479 555.7757 L905.0479 550.7757 Z" clip-path="url(#clipPath2)" stroke="none"/>
      <path fill="none" d="M846.0283 570.7757 L846.0283 607.7318" clip-path="url(#clipPath2)"/>
      <path d="M846.0283 615.7318 L851.0283 603.7318 L846.0283 606.7318 L841.0283 603.7318 Z" clip-path="url(#clipPath2)" stroke="none"/>
      <path fill="none" d="M846.0283 540.7318 L846.0283 503.7757" clip-path="url(#clipPath2)"/>
      <path d="M846.0283 495.7757 L841.0283 507.7757 L846.0283 504.7757 L851.0283 507.7757 Z" clip-path="url(#clipPath2)" stroke="none"/>
      <path fill="none" d="M1021.0283 615.7318 L1021.0283 578.7757" clip-path="url(#clipPath2)"/>
      <path d="M1021.0283 570.7757 L1016.0283 582.7757 L1021.0283 579.7757 L1026.0283 582.7757 Z" clip-path="url(#clipPath2)" stroke="none"/>
    </g>
    <g fill="rgb(245,245,245)" text-rendering="geometricPrecision" shape-rendering="geometricPrecision" transform="matrix(1,0,0,1,-720,-123)" stroke="rgb(245,245,245)">
      <rect x="1155.1289" y="821.5335" clip-path="url(#clipPath2)" width="110.7012" rx="4" ry="4" height="81.5156" stroke="none"/>
      <rect x="1155.1289" y="821.5335" clip-path="url(#clipPath2)" fill="rgb(235,235,235)" width="110.7012" height="20.7578" stroke="none"/>
    </g>
    <g font-size="15px" stroke-linecap="butt" transform="matrix(1,0,0,1,-720,-123)" text-rendering="geometricPrecision" font-family="sans-serif" shape-rendering="geometricPrecision" stroke-miterlimit="1.45">
      <text x="1200.4756" xml:space="preserve" y="837.358" clip-path="url(#clipPath2)" stroke="none">directives</text>
      <rect x="1155.1289" y="821.5335" clip-path="url(#clipPath2)" fill="none" width="110.7012" stroke-dasharray="6,2" rx="4" ry="4" height="81.5156"/>
    </g>
    <g fill="rgb(255,204,0)" text-rendering="geometricPrecision" shape-rendering="geometricPrecision" transform="matrix(1,0,0,1,-720,-123)" stroke="rgb(255,204,0)">
      <rect x="1160.1289" width="100.7012" height="30" y="847.2913" clip-path="url(#clipPath2)" stroke="none"/>
    </g>
    <g text-rendering="geometricPrecision" stroke-miterlimit="1.45" shape-rendering="geometricPrecision" font-family="sans-serif" transform="matrix(1,0,0,1,-720,-123)" stroke-linecap="butt">
      <text x="1167.1289" xml:space="preserve" y="866.6478" clip-path="url(#clipPath2)" stroke="none">directives model</text>
      <rect fill="none" x="1160.1289" width="100.7012" height="30" y="847.2913" clip-path="url(#clipPath2)"/>
    </g>
    <g fill="rgb(245,245,245)" text-rendering="geometricPrecision" shape-rendering="geometricPrecision" transform="matrix(1,0,0,1,-720,-123)" stroke="rgb(245,245,245)">
      <rect x="775" y="821.5335" clip-path="url(#clipPath2)" width="350.1289" rx="4" ry="4" height="180.7578" stroke="none"/>
      <rect x="775" y="821.5335" clip-path="url(#clipPath2)" fill="rgb(235,235,235)" width="350.1289" height="20.7578" stroke="none"/>
    </g>
    <g font-size="15px" stroke-linecap="butt" transform="matrix(1,0,0,1,-720,-123)" text-rendering="geometricPrecision" font-family="sans-serif" shape-rendering="geometricPrecision" stroke-miterlimit="1.45">
      <text x="1076.437" xml:space="preserve" y="837.358" clip-path="url(#clipPath2)" stroke="none">locales</text>
      <rect x="775" y="821.5335" clip-path="url(#clipPath2)" fill="none" width="350.1289" stroke-dasharray="6,2" rx="4" ry="4" height="180.7578"/>
    </g>
    <g fill="rgb(255,204,0)" text-rendering="geometricPrecision" shape-rendering="geometricPrecision" transform="matrix(1,0,0,1,-720,-123)" stroke="rgb(255,204,0)">
      <rect x="780" y="847.2913" clip-path="url(#clipPath2)" width="150.7109" rx="4" ry="4" height="30" stroke="none"/>
    </g>
    <g text-rendering="geometricPrecision" stroke-miterlimit="1.45" shape-rendering="geometricPrecision" font-family="sans-serif" transform="matrix(1,0,0,1,-720,-123)" stroke-linecap="butt">
      <text x="787" xml:space="preserve" y="866.6478" clip-path="url(#clipPath2)" stroke="none">blockly-messages service</text>
      <rect x="780" y="847.2913" clip-path="url(#clipPath2)" fill="none" width="150.7109" rx="4" ry="4" height="30"/>
    </g>
    <g fill="rgb(255,204,0)" text-rendering="geometricPrecision" shape-rendering="geometricPrecision" transform="matrix(1,0,0,1,-720,-123)" stroke="rgb(255,204,0)">
      <rect x="960.7109" y="847.2913" clip-path="url(#clipPath2)" width="159.418" rx="4" ry="4" height="30" stroke="none"/>
    </g>
    <g text-rendering="geometricPrecision" stroke-miterlimit="1.45" shape-rendering="geometricPrecision" font-family="sans-serif" transform="matrix(1,0,0,1,-720,-123)" stroke-linecap="butt">
      <text x="967.7109" xml:space="preserve" y="866.6478" clip-path="url(#clipPath2)" stroke="none">language-native-name filter</text>
      <rect x="960.7109" y="847.2913" clip-path="url(#clipPath2)" fill="none" width="159.418" rx="4" ry="4" height="30"/>
    </g>
    <g fill="rgb(255,204,0)" text-rendering="geometricPrecision" shape-rendering="geometricPrecision" transform="matrix(1,0,0,1,-720,-123)" stroke="rgb(255,204,0)">
      <rect x="800.332" y="907.2913" clip-path="url(#clipPath2)" width="110.0469" rx="4" ry="4" height="30" stroke="none"/>
    </g>
    <g text-rendering="geometricPrecision" stroke-miterlimit="1.45" shape-rendering="geometricPrecision" font-family="sans-serif" transform="matrix(1,0,0,1,-720,-123)" stroke-linecap="butt">
      <text x="807.332" xml:space="preserve" y="926.6478" clip-path="url(#clipPath2)" stroke="none">locale-cs constant</text>
      <rect x="800.332" y="907.2913" clip-path="url(#clipPath2)" fill="none" width="110.0469" rx="4" ry="4" height="30"/>
    </g>
    <g fill="rgb(255,204,0)" text-rendering="geometricPrecision" shape-rendering="geometricPrecision" transform="matrix(1,0,0,1,-720,-123)" stroke="rgb(255,204,0)">
      <rect x="987.7227" y="907.2913" clip-path="url(#clipPath2)" width="105.3945" rx="4" ry="4" height="30" stroke="none"/>
    </g>
    <g text-rendering="geometricPrecision" stroke-miterlimit="1.45" shape-rendering="geometricPrecision" font-family="sans-serif" transform="matrix(1,0,0,1,-720,-123)" stroke-linecap="butt">
      <text x="994.7227" xml:space="preserve" y="926.6478" clip-path="url(#clipPath2)" stroke="none">locale-en contant</text>
      <rect x="987.7227" y="907.2913" clip-path="url(#clipPath2)" fill="none" width="105.3945" rx="4" ry="4" height="30"/>
    </g>
    <g fill="rgb(255,204,0)" text-rendering="geometricPrecision" shape-rendering="geometricPrecision" transform="matrix(1,0,0,1,-720,-123)" stroke="rgb(255,204,0)">
      <rect x="996.7344" y="967.2913" clip-path="url(#clipPath2)" width="87.3711" rx="4" ry="4" height="30" stroke="none"/>
    </g>
    <g text-rendering="geometricPrecision" stroke-miterlimit="1.45" shape-rendering="geometricPrecision" font-family="sans-serif" transform="matrix(1,0,0,1,-720,-123)" stroke-linecap="butt">
      <text x="1003.7344" xml:space="preserve" y="986.6478" clip-path="url(#clipPath2)" stroke="none">locales model</text>
      <rect x="996.7344" y="967.2913" clip-path="url(#clipPath2)" fill="none" width="87.3711" rx="4" ry="4" height="30"/>
    </g>
    <g fill="rgb(255,204,0)" text-rendering="geometricPrecision" shape-rendering="geometricPrecision" transform="matrix(1,0,0,1,-720,-123)" stroke="rgb(255,204,0)">
      <rect x="809.0068" y="967.2913" clip-path="url(#clipPath2)" width="92.6973" rx="4" ry="4" height="30" stroke="none"/>
    </g>
    <g text-rendering="geometricPrecision" stroke-miterlimit="1.45" shape-rendering="geometricPrecision" font-family="sans-serif" transform="matrix(1,0,0,1,-720,-123)" stroke-linecap="butt">
      <text x="816.0068" xml:space="preserve" y="986.6478" clip-path="url(#clipPath2)" stroke="none">locales service</text>
      <rect x="809.0068" y="967.2913" clip-path="url(#clipPath2)" fill="none" width="92.6973" rx="4" ry="4" height="30"/>
    </g>
  </g>
</svg>
