<?xml version="1.0" encoding="UTF-8"?><svg xmlns="http://www.w3.org/2000/svg" xmlns:xlink="http://www.w3.org/1999/xlink" fill-opacity="1" color-rendering="auto" color-interpolation="auto" text-rendering="auto" stroke="black" stroke-linecap="square" width="422" stroke-miterlimit="10" shape-rendering="auto" stroke-opacity="1" fill="black" stroke-dasharray="none" font-weight="normal" stroke-width="1" height="241" font-family="'Dialog'" font-style="normal" stroke-linejoin="miter" font-size="12px" stroke-dashoffset="0" image-rendering="auto">
  <!--Generated by ySVG 2.5-->
  <defs id="genericDefs"/>
  <g>
    <defs id="defs1">
      <clipPath clipPathUnits="userSpaceOnUse" id="clipPath1">
        <path d="M0 0 L422 0 L422 241 L0 241 L0 0 Z"/>
      </clipPath>
      <clipPath clipPathUnits="userSpaceOnUse" id="clipPath2">
        <path d="M5 -15 L427 -15 L427 226 L5 226 L5 -15 Z"/>
      </clipPath>
    </defs>
    <g fill="white" text-rendering="geometricPrecision" shape-rendering="geometricPrecision" transform="translate(-5,15)" stroke="white">
      <rect x="5" width="422" height="241" y="-15" clip-path="url(#clipPath2)" stroke="none"/>
    </g>
    <g fill="rgb(245,245,245)" text-rendering="geometricPrecision" shape-rendering="geometricPrecision" transform="matrix(1,0,0,1,-5,15)" stroke="rgb(245,245,245)">
      <rect x="145.6971" y="161" clip-path="url(#clipPath2)" width="60.6797" rx="4" ry="4" height="50" stroke="none"/>
      <rect x="145.6971" y="161" clip-path="url(#clipPath2)" fill="rgb(235,235,235)" width="60.6797" height="20.7578" stroke="none"/>
    </g>
    <g font-size="15px" stroke-linecap="butt" transform="matrix(1,0,0,1,-5,15)" text-rendering="geometricPrecision" font-family="sans-serif" shape-rendering="geometricPrecision" stroke-miterlimit="1.45">
      <text x="167.6971" xml:space="preserve" y="176.8245" clip-path="url(#clipPath2)" stroke="none">maze</text>
      <rect x="145.6971" y="161" clip-path="url(#clipPath2)" fill="none" width="60.6797" stroke-dasharray="6,2" rx="4" ry="4" height="50"/>
    </g>
    <g fill="rgb(245,245,245)" text-rendering="geometricPrecision" shape-rendering="geometricPrecision" transform="matrix(1,0,0,1,-5,15)" stroke="rgb(245,245,245)">
      <rect x="84.0504" y="81" clip-path="url(#clipPath2)" width="79.0122" rx="4" ry="4" height="50" stroke="none"/>
      <rect x="84.0504" y="81" clip-path="url(#clipPath2)" fill="rgb(235,235,235)" width="79.0122" height="20.7578" stroke="none"/>
    </g>
    <g font-size="15px" stroke-linecap="butt" transform="matrix(1,0,0,1,-5,15)" text-rendering="geometricPrecision" font-family="sans-serif" shape-rendering="geometricPrecision" stroke-miterlimit="1.45">
      <text x="106.0504" xml:space="preserve" y="96.8245" clip-path="url(#clipPath2)" stroke="none">services</text>
      <rect x="84.0504" y="81" clip-path="url(#clipPath2)" fill="none" width="79.0122" stroke-dasharray="6,2" rx="4" ry="4" height="50"/>
    </g>
    <g fill="rgb(245,245,245)" text-rendering="geometricPrecision" shape-rendering="geometricPrecision" transform="matrix(1,0,0,1,-5,15)" stroke="rgb(245,245,245)">
      <rect x="54.0321" y="1" clip-path="url(#clipPath2)" width="139.0488" rx="4" ry="4" height="50" stroke="none"/>
      <rect x="54.0321" y="1" clip-path="url(#clipPath2)" fill="rgb(235,235,235)" width="139.0488" height="20.7578" stroke="none"/>
    </g>
    <g font-size="15px" stroke-linecap="butt" transform="matrix(1,0,0,1,-5,15)" text-rendering="geometricPrecision" font-family="sans-serif" shape-rendering="geometricPrecision" stroke-miterlimit="1.45">
      <text x="76.0321" xml:space="preserve" y="16.8245" clip-path="url(#clipPath2)" stroke="none">task-environment</text>
      <rect x="54.0321" y="1" clip-path="url(#clipPath2)" fill="none" width="139.0488" stroke-dasharray="6,2" rx="4" ry="4" height="50"/>
    </g>
    <g fill="rgb(245,245,245)" text-rendering="geometricPrecision" shape-rendering="geometricPrecision" transform="matrix(1,0,0,1,-5,15)" stroke="rgb(245,245,245)">
      <rect x="20" y="161" clip-path="url(#clipPath2)" width="95.6968" rx="4" ry="4" height="50" stroke="none"/>
      <rect x="20" y="161" clip-path="url(#clipPath2)" fill="rgb(235,235,235)" width="95.6968" height="20.7578" stroke="none"/>
    </g>
    <g font-size="15px" stroke-linecap="butt" transform="matrix(1,0,0,1,-5,15)" text-rendering="geometricPrecision" font-family="sans-serif" shape-rendering="geometricPrecision" stroke-miterlimit="1.45">
      <text x="42" xml:space="preserve" y="176.8245" clip-path="url(#clipPath2)" stroke="none">workspace</text>
      <rect x="20" y="161" clip-path="url(#clipPath2)" fill="none" width="95.6968" stroke-dasharray="6,2" rx="4" ry="4" height="50"/>
    </g>
    <g fill="rgb(245,245,245)" text-rendering="geometricPrecision" shape-rendering="geometricPrecision" transform="matrix(1,0,0,1,-5,15)" stroke="rgb(245,245,245)">
      <rect x="323.7733" y="10.6211" clip-path="url(#clipPath2)" width="87.3545" rx="4" ry="4" height="30.7578" stroke="none"/>
      <rect x="323.7733" y="10.6211" clip-path="url(#clipPath2)" fill="rgb(235,235,235)" width="87.3545" height="20.7578" stroke="none"/>
    </g>
    <g font-size="15px" stroke-linecap="butt" transform="matrix(1,0,0,1,-5,15)" text-rendering="geometricPrecision" font-family="sans-serif" shape-rendering="geometricPrecision" stroke-miterlimit="1.45">
      <text x="345.7733" xml:space="preserve" y="26.4456" clip-path="url(#clipPath2)" stroke="none">directives</text>
      <rect x="323.7733" y="10.6211" clip-path="url(#clipPath2)" fill="none" width="87.3545" stroke-dasharray="6,2" rx="4" ry="4" height="30.7578"/>
    </g>
    <g fill="rgb(245,245,245)" text-rendering="geometricPrecision" shape-rendering="geometricPrecision" transform="matrix(1,0,0,1,-5,15)" stroke="rgb(245,245,245)">
      <rect x="223.0812" y="0" clip-path="url(#clipPath2)" width="70.6919" rx="4" ry="4" height="52" stroke="none"/>
      <rect x="223.0812" y="0" clip-path="url(#clipPath2)" fill="rgb(235,235,235)" width="70.6919" height="20.7578" stroke="none"/>
    </g>
    <g font-size="15px" stroke-linecap="butt" transform="matrix(1,0,0,1,-5,15)" text-rendering="geometricPrecision" font-family="sans-serif" shape-rendering="geometricPrecision" stroke-miterlimit="1.45">
      <text x="245.0812" xml:space="preserve" y="15.8245" clip-path="url(#clipPath2)" stroke="none">locales</text>
      <rect x="223.0812" y="0" clip-path="url(#clipPath2)" fill="none" width="70.6919" stroke-dasharray="6,2" rx="4" ry="4" height="52"/>
      <path fill="none" d="M143.3096 131 L143.3096 146 L160.867 146 L160.867 152.9707" clip-path="url(#clipPath2)"/>
      <path d="M160.867 160.9707 L165.867 148.9707 L160.867 151.9707 L155.867 148.9707 Z" stroke="none" clip-path="url(#clipPath2)"/>
      <path fill="none" d="M179.1761 51 L179.1761 66 L191.2067 66 L191.2068 152.9536" clip-path="url(#clipPath2)"/>
      <path d="M191.2068 160.9536 L196.2068 148.9536 L191.2068 151.9536 L186.2068 148.9536 Z" stroke="none" clip-path="url(#clipPath2)"/>
      <path fill="none" d="M123.5565 51 L123.5565 72.9707" clip-path="url(#clipPath2)"/>
      <path d="M123.5565 80.9707 L128.5565 68.9707 L123.5565 71.9707 L118.5565 68.9707 Z" stroke="none" clip-path="url(#clipPath2)"/>
      <path fill="none" d="M95.7468 51 L95.7468 66 L97.2191 66 L97.2191 72.9707" clip-path="url(#clipPath2)"/>
      <path d="M97.2191 80.9707 L102.2191 68.9707 L97.2191 71.9707 L92.2191 68.9707 Z" stroke="none" clip-path="url(#clipPath2)"/>
      <path fill="none" d="M151.3663 51 L151.3663 66 L149.894 66 L149.894 72.9707" clip-path="url(#clipPath2)"/>
      <path d="M149.894 80.9707 L154.894 68.9707 L149.894 71.9707 L144.894 68.9707 Z" stroke="none" clip-path="url(#clipPath2)"/>
      <path fill="none" d="M103.8035 131 L103.8035 146 L91.7726 146 L91.7726 152.9707" clip-path="url(#clipPath2)"/>
      <path d="M91.7726 160.9707 L96.7726 148.9707 L91.7726 151.9707 L86.7726 148.9707 Z" stroke="none" clip-path="url(#clipPath2)"/>
      <path fill="none" d="M67.937 51 L67.937 66 L43.9242 66 L43.9242 152.9536" clip-path="url(#clipPath2)"/>
      <path d="M43.9242 160.9536 L48.9242 148.9536 L43.9242 151.9536 L38.9242 148.9536 Z" stroke="none" clip-path="url(#clipPath2)"/>
    </g>
  </g>
</svg>
