<?xml version="1.0" encoding="UTF-8"?><svg xmlns="http://www.w3.org/2000/svg" xmlns:xlink="http://www.w3.org/1999/xlink" fill-opacity="1" color-rendering="auto" color-interpolation="auto" text-rendering="auto" stroke="black" stroke-linecap="square" width="1959" stroke-miterlimit="10" shape-rendering="auto" stroke-opacity="1" fill="black" stroke-dasharray="none" font-weight="normal" stroke-width="1" height="706" font-family="'Dialog'" font-style="normal" stroke-linejoin="miter" font-size="12px" stroke-dashoffset="0" image-rendering="auto">
  <!--Generated by ySVG 2.5-->
  <defs id="genericDefs"/>
  <g>
    <g fill="white" text-rendering="geometricPrecision" shape-rendering="geometricPrecision" transform="translate(-113,303)" stroke="white">
      <rect x="113" width="1959" height="706" y="-303" clip-path="url(#clipPath2)" stroke="none"/>
    </g>
    <g text-rendering="geometricPrecision" shape-rendering="geometricPrecision" transform="matrix(0.7701,0,0,0.7647,15.6627,38.4362)">
      <g clip-path="url(#clipPath3)">
        <svg xmlns:svg="http://www.w3.org/2000/svg" xmlns:sodipodi="http://sodipodi.sourceforge.net/DTD/sodipodi-0.dtd" xmlns:inkscape="http://www.inkscape.org/namespaces/inkscape" xmlns:dc="http://purl.org/dc/elements/1.1/" xmlns:cc="http://web.resource.org/cc/" xmlns:rdf="http://www.w3.org/1999/02/22-rdf-syntax-ns#" opacity="1" writing-mode="lr-tb" stop-color="rgb(0, 0, 0)" shape-rendering="auto" glyph-orientation-horizontal="0deg" color-profile="auto" lighting-color="rgb(255, 255, 255)" color="rgb(0, 0, 0)" font-weight="400" alignment-baseline="auto" font-style="normal" version="1.0" color-interpolation-filters="linearrgb" text-anchor="start" stroke-linecap="butt" color-interpolation="srgb" font-variant="normal" word-spacing="normal" fill-opacity="1" text-rendering="auto" clip-path="none" text-decoration="none" letter-spacing="normal" glyph-orientation-vertical="auto" display="inline" font-size-adjust="none" overflow="visible" fill="rgb(0, 0, 0)" font-stretch="normal" stroke-dasharray="none" inkscape:version="0.45.1" id="svg1.svg2" stroke-miterlimit="4" stop-opacity="1" color-rendering="auto" font-size="12" sodipodi:docbase="C:\Daten\alberts\projects\yfx" pointer-events="visiblepainted" mask="none" direction="ltr" baseline-shift="baseline" sodipodi:docname="uml_actor.svg" enable-background="accumulate" fill-rule="nonzero" image-rendering="auto" stroke-dashoffset="0" inkscape:output_extension="org.inkscape.output.svg.inkscape" marker-end="none" width="41" clip="auto" cursor="auto" stroke="none" filter="none" visibility="visible" kerning="auto" stroke-width="1" font-family="&quot;Arial&quot;,&quot;Helvetica&quot;,sans-serif" flood-opacity="1" clip-rule="nonzero" src="none" height="68.997391" unicode-bidi="normal" sodipodi:version="0.32" stroke-linejoin="miter" stroke-opacity="1" flood-color="rgb(0, 0, 0)" dominant-baseline="auto" marker-start="none" marker-mid="none">
  <defs id="svg1.defs4">
            <clipPath clipPathUnits="userSpaceOnUse" id="clipPath1">
              <path d="M0 0 L1959 0 L1959 706 L0 706 L0 0 Z"/>
            </clipPath>
            <clipPath clipPathUnits="userSpaceOnUse" id="clipPath2">
              <path d="M113 -303 L2072 -303 L2072 403 L113 403 L113 -303 Z"/>
            </clipPath>
            <clipPath clipPathUnits="userSpaceOnUse" id="clipPath3">
              <path d="M-20.3398 -50.2619 L2523.6482 -50.2619 L2523.6482 872.9529 L-20.3398 872.9529 L-20.3398 -50.2619 Z"/>
            </clipPath>
          </defs>
  
  <metadata id="svg1.metadata7">
    
  </metadata>
  <g inkscape:groupmode="layer" id="svg1.layer1" transform="translate(-29.5,-42.959476)" inkscape:label="Ebene 1">
    <a id="svg1.a3142" transform="matrix(1.0873906,0,0,1,-4.4741999,0)">
      <path transform="translate(11.586889,5.2908993)" style="fill:none;fill-rule:evenodd;stroke:#000000;stroke-width:1px;stroke-linecap:butt;stroke-linejoin:miter;stroke-opacity:1" sodipodi:cx="38.509369" sodipodi:cy="47.36993" sodipodi:rx="8.5197716" id="svg1.path2160" d="M 47.02914 47.36993 A 8.5197716 9.2013531 0 1 1  29.989597,47.36993 A 8.5197716 9.2013531 0 1 1  47.02914 47.36993 z" sodipodi:ry="9.2013531" sodipodi:type="arc"/>
    </a>
    <path style="fill:none" sodipodi:cx="43.962021" sodipodi:cy="48.392303" d="M 47.71072 48.392303 A 3.7486994 0 0 1 1  40.213321,48.392303 A 3.7486994 0 0 1 1  47.71072 48.392303 z" id="svg1.path3134" sodipodi:rx="3.7486994" sodipodi:ry="0" sodipodi:type="arc"/>
    <path style="fill:none;fill-rule:evenodd;stroke:#000000;stroke-width:1.24319649px;stroke-linecap:butt;stroke-linejoin:miter;stroke-opacity:1" d="M 50,61.33709 C 50,91.363211 50,92.247838 50,92.247838" id="svg1.path3136"/>
    <path style="fill:none;fill-rule:evenodd;stroke:#000000;stroke-width:1px;stroke-linecap:butt;stroke-linejoin:miter;stroke-opacity:1" d="M 69.760668,72.362183 C 69.760668,72.362183 69.760668,72.362183 50.239332,72.362183 C 30.239332,72.362183 30.239332,72.362183 30.239332,72.362183 L 30.239332,72.362183" id="svg1.path3138"/>
    <path style="fill:none;fill-rule:evenodd;stroke:#000000;stroke-width:1px;stroke-linecap:butt;stroke-linejoin:miter;stroke-opacity:1" d="M 30,111.45687 C 30,111.45687 30,111.45687 50,92.013532 C 70,111.45687 70,111.45687 70,111.45687" id="svg1.path3140"/>
  </g>
</svg>
      </g>
    </g>
    <g fill="white" text-rendering="geometricPrecision" shape-rendering="geometricPrecision" transform="matrix(1,0,0,1,-113,303)" stroke="white">
      <rect x="128.7251" width="31.4473" height="18.5234" y="-287.4543" clip-path="url(#clipPath2)" stroke="none"/>
    </g>
    <g font-size="13px" stroke-linecap="butt" transform="matrix(1,0,0,1,-113,303)" text-rendering="geometricPrecision" font-family="sans-serif" shape-rendering="geometricPrecision" stroke-miterlimit="1.45">
      <text x="130.7251" xml:space="preserve" y="-273.4731" clip-path="url(#clipPath2)" stroke="none">User</text>
    </g>
    <g fill="silver" text-rendering="geometricPrecision" shape-rendering="geometricPrecision" transform="matrix(1,0,0,1,-113,303)" stroke="silver">
      <rect x="138.9487" width="11" height="545.682" y="-159.3432" clip-path="url(#clipPath2)" stroke="none"/>
    </g>
    <g text-rendering="geometricPrecision" stroke-miterlimit="1.45" shape-rendering="geometricPrecision" transform="matrix(1,0,0,1,-113,303)" stroke-linecap="butt">
      <rect fill="none" x="138.9487" width="11" height="545.682" y="-159.3432" clip-path="url(#clipPath2)"/>
    </g>
    <g fill="rgb(255,204,0)" text-rendering="geometricPrecision" shape-rendering="geometricPrecision" transform="matrix(1,0,0,1,-113,303)" stroke="rgb(255,204,0)">
      <rect x="271.3927" width="162.6914" height="30" y="-253.4197" clip-path="url(#clipPath2)" stroke="none"/>
    </g>
    <g text-rendering="geometricPrecision" stroke-miterlimit="1.45" shape-rendering="geometricPrecision" font-family="sans-serif" transform="matrix(1,0,0,1,-113,303)" stroke-linecap="butt">
      <text x="284.0578" xml:space="preserve" y="-234.0632" clip-path="url(#clipPath2)" stroke="none">practiceCtrl:practice.ctrl.js</text>
      <rect fill="none" x="271.3927" width="162.6914" height="30" y="-253.4197" clip-path="url(#clipPath2)"/>
    </g>
    <g fill="silver" text-rendering="geometricPrecision" shape-rendering="geometricPrecision" transform="matrix(1,0,0,1,-113,303)" stroke="silver">
      <rect x="347.2384" width="11" height="540.4368" y="-154.0981" clip-path="url(#clipPath2)" stroke="none"/>
    </g>
    <g text-rendering="geometricPrecision" stroke-miterlimit="1.45" shape-rendering="geometricPrecision" transform="matrix(1,0,0,1,-113,303)" stroke-linecap="butt">
      <rect fill="none" x="347.2384" width="11" height="540.4368" y="-154.0981" clip-path="url(#clipPath2)"/>
    </g>
    <g fill="rgb(255,204,0)" text-rendering="geometricPrecision" shape-rendering="geometricPrecision" transform="matrix(1,0,0,1,-113,303)" stroke="rgb(255,204,0)">
      <rect x="545.3586" width="184.043" height="30" y="-253.4197" clip-path="url(#clipPath2)" stroke="none"/>
    </g>
    <g text-rendering="geometricPrecision" stroke-miterlimit="1.45" shape-rendering="geometricPrecision" font-family="sans-serif" transform="matrix(1,0,0,1,-113,303)" stroke-linecap="butt">
      <text x="558.0237" xml:space="preserve" y="-234.0632" clip-path="url(#clipPath2)" stroke="none">practiceService:practice.srv.js</text>
      <rect fill="none" x="545.3586" width="184.043" height="30" y="-253.4197" clip-path="url(#clipPath2)"/>
    </g>
    <g fill="silver" text-rendering="geometricPrecision" shape-rendering="geometricPrecision" transform="matrix(1,0,0,1,-113,303)" stroke="silver">
      <rect x="631.8801" width="11" height="430.0093" y="-121.2981" clip-path="url(#clipPath2)" stroke="none"/>
    </g>
    <g text-rendering="geometricPrecision" stroke-miterlimit="1.45" shape-rendering="geometricPrecision" transform="matrix(1,0,0,1,-113,303)" stroke-linecap="butt">
      <rect fill="none" x="631.8801" width="11" height="430.0093" y="-121.2981" clip-path="url(#clipPath2)"/>
    </g>
    <g fill="silver" text-rendering="geometricPrecision" shape-rendering="geometricPrecision" transform="matrix(1,0,0,1,-113,303)" stroke="silver">
      <rect x="631.8801" width="11" height="16.6359" y="357.3747" clip-path="url(#clipPath2)" stroke="none"/>
    </g>
    <g text-rendering="geometricPrecision" stroke-miterlimit="1.45" shape-rendering="geometricPrecision" transform="matrix(1,0,0,1,-113,303)" stroke-linecap="butt">
      <rect fill="none" x="631.8801" width="11" height="16.6359" y="357.3747" clip-path="url(#clipPath2)"/>
    </g>
    <g fill="rgb(255,204,0)" text-rendering="geometricPrecision" shape-rendering="geometricPrecision" transform="matrix(1,0,0,1,-113,303)" stroke="rgb(255,204,0)">
      <rect x="840.6761" width="188.0566" height="30" y="-253.4197" clip-path="url(#clipPath2)" stroke="none"/>
    </g>
    <g text-rendering="geometricPrecision" stroke-miterlimit="1.45" shape-rendering="geometricPrecision" font-family="sans-serif" transform="matrix(1,0,0,1,-113,303)" stroke-linecap="butt">
      <text x="853.3412" xml:space="preserve" y="-234.0632" clip-path="url(#clipPath2)" stroke="none">practiceDao:practiceDao.srv.js</text>
      <rect fill="none" x="840.6761" width="188.0566" height="30" y="-253.4197" clip-path="url(#clipPath2)"/>
    </g>
    <g fill="silver" text-rendering="geometricPrecision" shape-rendering="geometricPrecision" transform="matrix(1,0,0,1,-113,303)" stroke="silver">
      <rect x="929.2045" width="11" height="50.6788" y="-107.4075" clip-path="url(#clipPath2)" stroke="none"/>
    </g>
    <g text-rendering="geometricPrecision" stroke-miterlimit="1.45" shape-rendering="geometricPrecision" transform="matrix(1,0,0,1,-113,303)" stroke-linecap="butt">
      <rect fill="none" x="929.2045" width="11" height="50.6788" y="-107.4075" clip-path="url(#clipPath2)"/>
    </g>
    <g fill="rgb(255,204,0)" text-rendering="geometricPrecision" shape-rendering="geometricPrecision" transform="matrix(1,0,0,1,-113,303)" stroke="rgb(255,204,0)">
      <rect x="1140.0073" width="280.0898" height="30" y="-253.4197" clip-path="url(#clipPath2)" stroke="none"/>
    </g>
    <g text-rendering="geometricPrecision" stroke-miterlimit="1.45" shape-rendering="geometricPrecision" font-family="sans-serif" transform="matrix(1,0,0,1,-113,303)" stroke-linecap="butt">
      <text x="1152.0073" xml:space="preserve" y="-234.0632" clip-path="url(#clipPath2)" stroke="none">taskEnvironmentService:task-environment.srv.js</text>
      <rect fill="none" x="1140.0073" width="280.0898" height="30" y="-253.4197" clip-path="url(#clipPath2)"/>
    </g>
    <g fill="silver" text-rendering="geometricPrecision" shape-rendering="geometricPrecision" transform="matrix(1,0,0,1,-113,303)" stroke="silver">
      <rect x="1274.5522" width="11" height="243.845" y="42.4081" clip-path="url(#clipPath2)" stroke="none"/>
    </g>
    <g text-rendering="geometricPrecision" stroke-miterlimit="1.45" shape-rendering="geometricPrecision" transform="matrix(1,0,0,1,-113,303)" stroke-linecap="butt">
      <rect fill="none" x="1274.5522" width="11" height="243.845" y="42.4081" clip-path="url(#clipPath2)"/>
    </g>
    <g fill="silver" text-rendering="geometricPrecision" shape-rendering="geometricPrecision" transform="matrix(1,0,0,1,-113,303)" stroke="silver">
      <rect x="637.3096" width="11" height="105.2375" y="-16.7287" clip-path="url(#clipPath2)" stroke="none"/>
    </g>
    <g text-rendering="geometricPrecision" stroke-miterlimit="1.45" shape-rendering="geometricPrecision" transform="matrix(1,0,0,1,-113,303)" stroke-linecap="butt">
      <rect fill="none" x="637.3096" width="11" height="105.2375" y="-16.7287" clip-path="url(#clipPath2)"/>
    </g>
    <g fill="rgb(255,204,0)" text-rendering="geometricPrecision" shape-rendering="geometricPrecision" transform="matrix(1,0,0,1,-113,303)" stroke="rgb(255,204,0)">
      <rect x="1531.3717" width="157.3652" height="30" y="-253.4197" clip-path="url(#clipPath2)" stroke="none"/>
    </g>
    <g text-rendering="geometricPrecision" stroke-miterlimit="1.45" shape-rendering="geometricPrecision" font-family="sans-serif" transform="matrix(1,0,0,1,-113,303)" stroke-linecap="butt">
      <text x="1543.3717" xml:space="preserve" y="-234.0632" clip-path="url(#clipPath2)" stroke="none">mazeService:maze.srv.js</text>
      <rect fill="none" x="1531.3717" width="157.3652" height="30" y="-253.4197" clip-path="url(#clipPath2)"/>
    </g>
    <g fill="silver" text-rendering="geometricPrecision" shape-rendering="geometricPrecision" transform="matrix(1,0,0,1,-113,303)" stroke="silver">
      <rect x="1604.5543" width="11" height="122.2222" y="52.1361" clip-path="url(#clipPath2)" stroke="none"/>
    </g>
    <g text-rendering="geometricPrecision" stroke-miterlimit="1.45" shape-rendering="geometricPrecision" transform="matrix(1,0,0,1,-113,303)" stroke-linecap="butt">
      <rect fill="none" x="1604.5543" width="11" height="122.2222" y="52.1361" clip-path="url(#clipPath2)"/>
    </g>
    <g fill="rgb(255,204,0)" text-rendering="geometricPrecision" shape-rendering="geometricPrecision" transform="matrix(1,0,0,1,-113,303)" stroke="rgb(255,204,0)">
      <rect x="1800.0114" width="213.3926" height="30" y="-253.4197" clip-path="url(#clipPath2)" stroke="none"/>
    </g>
    <g text-rendering="geometricPrecision" stroke-miterlimit="1.45" shape-rendering="geometricPrecision" font-family="sans-serif" transform="matrix(1,0,0,1,-113,303)" stroke-linecap="butt">
      <text x="1812.0115" xml:space="preserve" y="-234.0632" clip-path="url(#clipPath2)" stroke="none">workspaceService:workspace.srv.js</text>
      <rect fill="none" x="1800.0114" width="213.3926" height="30" y="-253.4197" clip-path="url(#clipPath2)"/>
    </g>
    <g fill="silver" text-rendering="geometricPrecision" shape-rendering="geometricPrecision" transform="matrix(1,0,0,1,-113,303)" stroke="silver">
      <rect x="1901.2077" width="11" height="63.7041" y="214.3583" clip-path="url(#clipPath2)" stroke="none"/>
    </g>
    <g text-rendering="geometricPrecision" stroke-miterlimit="1.45" shape-rendering="geometricPrecision" transform="matrix(1,0,0,1,-113,303)" stroke-linecap="butt">
      <rect fill="none" x="1901.2077" width="11" height="63.7041" y="214.3583" clip-path="url(#clipPath2)"/>
    </g>
    <g fill="silver" text-rendering="geometricPrecision" shape-rendering="geometricPrecision" transform="matrix(1,0,0,1,-113,303)" stroke="silver">
      <rect x="1609.219" width="11" height="69.9096" y="79.5896" clip-path="url(#clipPath2)" stroke="none"/>
    </g>
    <g text-rendering="geometricPrecision" stroke-miterlimit="1.45" shape-rendering="geometricPrecision" transform="matrix(1,0,0,1,-113,303)" stroke-linecap="butt">
      <rect fill="none" x="1609.219" width="11" height="69.9096" y="79.5896" clip-path="url(#clipPath2)"/>
    </g>
    <g fill="silver" text-rendering="geometricPrecision" shape-rendering="geometricPrecision" transform="matrix(1,0,0,1,-113,303)" stroke="silver">
      <rect x="1906.4925" width="11" height="40.4388" y="234.3583" clip-path="url(#clipPath2)" stroke="none"/>
    </g>
    <g text-rendering="geometricPrecision" stroke-miterlimit="1.45" shape-rendering="geometricPrecision" transform="matrix(1,0,0,1,-113,303)" stroke-linecap="butt">
      <rect fill="none" x="1906.4925" width="11" height="40.4388" y="234.3583" clip-path="url(#clipPath2)"/>
    </g>
    <g fill="silver" text-rendering="geometricPrecision" shape-rendering="geometricPrecision" transform="matrix(1,0,0,1,-113,303)" stroke="silver">
      <rect x="929.2045" width="11" height="1" y="385.3388" clip-path="url(#clipPath2)" stroke="none"/>
    </g>
    <g text-rendering="geometricPrecision" stroke-miterlimit="1.45" shape-rendering="geometricPrecision" transform="matrix(1,0,0,1,-113,303)" stroke-linecap="butt">
      <rect fill="none" x="929.2045" width="11" height="1" y="385.3388" clip-path="url(#clipPath2)"/>
    </g>
    <g fill="silver" text-rendering="geometricPrecision" shape-rendering="geometricPrecision" transform="matrix(1,0,0,1,-113,303)" stroke="silver">
      <rect x="1274.5522" width="11" height="1" y="385.3388" clip-path="url(#clipPath2)" stroke="none"/>
    </g>
    <g text-rendering="geometricPrecision" stroke-miterlimit="1.45" shape-rendering="geometricPrecision" transform="matrix(1,0,0,1,-113,303)" stroke-linecap="butt">
      <rect fill="none" x="1274.5522" width="11" height="1" y="385.3388" clip-path="url(#clipPath2)"/>
    </g>
    <g fill="silver" text-rendering="geometricPrecision" shape-rendering="geometricPrecision" transform="matrix(1,0,0,1,-113,303)" stroke="silver">
      <rect x="1604.5543" width="11" height="1" y="385.3388" clip-path="url(#clipPath2)" stroke="none"/>
    </g>
    <g text-rendering="geometricPrecision" stroke-miterlimit="1.45" shape-rendering="geometricPrecision" transform="matrix(1,0,0,1,-113,303)" stroke-linecap="butt">
      <rect fill="none" x="1604.5543" width="11" height="1" y="385.3388" clip-path="url(#clipPath2)"/>
    </g>
    <g fill="silver" text-rendering="geometricPrecision" shape-rendering="geometricPrecision" transform="matrix(1,0,0,1,-113,303)" stroke="silver">
      <rect x="1901.2077" width="11" height="1" y="385.3388" clip-path="url(#clipPath2)" stroke="none"/>
    </g>
    <g text-rendering="geometricPrecision" stroke-miterlimit="1.45" shape-rendering="geometricPrecision" transform="matrix(1,0,0,1,-113,303)" stroke-linecap="butt">
      <rect fill="none" x="1901.2077" width="11" height="1" y="385.3388" clip-path="url(#clipPath2)"/>
      <path fill="none" stroke-dasharray="6,2" d="M144.4487 -211.902 L144.4487 -185.6354 L144.4487 -185.6354 L144.4487 -159.3689" clip-path="url(#clipPath2)"/>
      <path fill="none" stroke-dasharray="6,2" d="M352.7384 -223.4197 L352.7384 -154.0981" clip-path="url(#clipPath2)"/>
      <path fill="none" d="M149.9865 -154.0981 L339.2295 -154.0981" clip-path="url(#clipPath2)"/>
      <path d="M347.2295 -154.0981 L335.2295 -159.0981 L338.2295 -154.0981 L335.2295 -149.0981 Z" clip-path="url(#clipPath2)" stroke="none"/>
      <text x="198.2498" xml:space="preserve" y="-163.1592" clip-path="url(#clipPath2)" font-family="sans-serif" stroke="none">practiceNextTask()</text>
      <path fill="none" stroke-dasharray="6,2" d="M352.7384 386.3387 L150.311 386.3387" clip-path="url(#clipPath2)"/>
      <path stroke-dasharray="6,2" d="M146.311 386.3387 L158.311 392.3387 L146.311 386.3387 L158.311 380.3387 Z" clip-path="url(#clipPath2)" stroke="none"/>
      <path fill="none" stroke-miterlimit="10" d="M146.311 386.3387 L158.311 392.3387 L146.311 386.3387 L158.311 380.3387 Z" clip-path="url(#clipPath2)" stroke-linecap="square"/>
      <path fill="none" stroke-dasharray="6,2" d="M637.3801 -223.4197 L637.3801 -121.2981" clip-path="url(#clipPath2)"/>
      <path fill="none" d="M358.2389 -121.2981 L629.3801 -121.2981" clip-path="url(#clipPath2)"/>
      <path d="M637.3801 -121.2981 L625.3801 -126.2981 L628.3801 -121.2981 L625.3801 -116.2981 Z" clip-path="url(#clipPath2)" stroke="none"/>
      <text x="452.3932" xml:space="preserve" y="-131.4856" clip-path="url(#clipPath2)" font-family="sans-serif" stroke="none">settingNextTast()</text>
      <path fill="none" stroke-dasharray="6,2" d="M637.3801 308.7112 L363.219 308.7112" clip-path="url(#clipPath2)"/>
      <path stroke-dasharray="6,2" d="M359.219 308.7112 L371.219 314.7112 L359.219 308.7112 L371.219 302.7112 Z" clip-path="url(#clipPath2)" stroke="none"/>
      <path fill="none" stroke-miterlimit="10" d="M359.219 308.7112 L371.219 314.7112 L359.219 308.7112 L371.219 302.7112 Z" clip-path="url(#clipPath2)" stroke-linecap="square"/>
      <path fill="none" d="M358.2631 357.3747 L623.8945 357.3747" clip-path="url(#clipPath2)"/>
      <path d="M631.8945 357.3747 L619.8945 352.3747 L622.8945 357.3747 L619.8945 362.3747 Z" clip-path="url(#clipPath2)" stroke="none"/>
      <text x="452.3825" xml:space="preserve" y="348.9198" clip-path="url(#clipPath2)" font-family="sans-serif" stroke="none">practicingTask()</text>
      <path fill="none" stroke-dasharray="6,2" d="M637.3801 308.7112 L637.3801 357.3747" clip-path="url(#clipPath2)"/>
      <path fill="none" stroke-dasharray="6,2" d="M631.8555 373.4456 L363.224 373.4456" clip-path="url(#clipPath2)"/>
      <path stroke-dasharray="6,2" d="M359.224 373.4456 L371.224 379.4456 L359.224 373.4456 L371.224 367.4456 Z" clip-path="url(#clipPath2)" stroke="none"/>
      <path fill="none" stroke-miterlimit="10" d="M359.224 373.4456 L371.224 379.4456 L359.224 373.4456 L371.224 367.4456 Z" clip-path="url(#clipPath2)" stroke-linecap="square"/>
      <path fill="none" stroke-dasharray="6,2" d="M934.7045 -223.4197 L934.7045 -107.4075" clip-path="url(#clipPath2)"/>
      <path fill="none" d="M642.8606 -107.4075 L926.7045 -107.4075" clip-path="url(#clipPath2)"/>
      <path d="M934.7045 -107.4075 L922.7045 -112.4075 L925.7045 -107.4075 L922.7045 -102.4075 Z" clip-path="url(#clipPath2)" stroke="none"/>
      <text x="741.4427" xml:space="preserve" y="-133.0511" clip-path="url(#clipPath2)" font-family="sans-serif" stroke="none">gettingNextTask()</text>
      <path fill="none" stroke-dasharray="6,2" d="M934.7045 -56.7287 L647.8569 -56.7287" clip-path="url(#clipPath2)"/>
      <path stroke-dasharray="6,2" d="M643.8569 -56.7287 L655.8569 -50.7287 L643.8569 -56.7287 L655.8569 -62.7287 Z" clip-path="url(#clipPath2)" stroke="none"/>
      <path fill="none" stroke-miterlimit="10" d="M643.8569 -56.7287 L655.8569 -50.7287 L643.8569 -56.7287 L655.8569 -62.7287 Z" clip-path="url(#clipPath2)" stroke-linecap="square"/>
      <text x="739.3519" xml:space="preserve" y="-67.6267" clip-path="url(#clipPath2)" font-family="sans-serif" stroke="none">newTaskInstance</text>
      <path fill="none" stroke-dasharray="6,2" d="M1280.0522 -223.4197 L1280.0522 42.4081" clip-path="url(#clipPath2)"/>
      <path fill="none" stroke-dasharray="6,2" d="M1274.5276 284.9731 L647.8814 284.9731" clip-path="url(#clipPath2)"/>
      <path stroke-dasharray="6,2" d="M643.8814 284.9731 L655.8814 290.9731 L643.8814 284.9731 L655.8814 278.9731 Z" clip-path="url(#clipPath2)" stroke="none"/>
      <path fill="none" stroke-miterlimit="10" d="M643.8814 284.9731 L655.8814 290.9731 L643.8814 284.9731 L655.8814 278.9731 Z" clip-path="url(#clipPath2)" stroke-linecap="square"/>
      <path fill="none" d="M642.9076 -36.7287 L668.3096 -36.7287 L668.3096 -15.0968 L656.3224 -15.0968" clip-path="url(#clipPath2)"/>
      <path d="M648.3224 -15.0968 L660.3224 -10.0968 L657.3224 -15.0968 L660.3224 -20.0968 Z" clip-path="url(#clipPath2)" stroke="none"/>
      <text x="676.3179" xml:space="preserve" y="-21.5563" clip-path="url(#clipPath2)" font-family="sans-serif" stroke="none">function (newTaskInstance)</text>
      <path fill="none" d="M648.3109 3.2713 L668.3096 3.2713 L668.3096 23.2713 L656.3314 23.2713" clip-path="url(#clipPath2)"/>
      <path d="M648.3314 23.2713 L660.3314 28.2713 L657.3314 23.2713 L660.3314 18.2713 Z" clip-path="url(#clipPath2)" stroke="none"/>
      <text x="675.0533" xml:space="preserve" y="17.6277" clip-path="url(#clipPath2)" font-family="sans-serif" stroke="none">newAttemptReport(newTask)</text>
      <path fill="none" d="M648.3096 47.613 L1266.5383 47.613" clip-path="url(#clipPath2)"/>
      <path d="M1274.5383 47.613 L1262.5383 42.613 L1265.5383 47.613 L1262.5383 52.613 Z" clip-path="url(#clipPath2)" stroke="none"/>
      <text x="958.96" xml:space="preserve" y="21.9694" clip-path="url(#clipPath2)" font-family="sans-serif" stroke="none">setTask(newTask, attemptFinished, instructionText)</text>
      <path fill="none" stroke-dasharray="6,2" d="M648.3135 88.5088 L668.3096 88.5088 L668.3096 108.5088 L647.8965 108.5088" clip-path="url(#clipPath2)"/>
      <path stroke-dasharray="6,2" d="M643.8965 108.5088 L655.8965 114.5088 L643.8965 108.5088 L655.8965 102.5088 Z" clip-path="url(#clipPath2)" stroke="none"/>
      <path fill="none" stroke-miterlimit="10" d="M643.8965 108.5088 L655.8965 114.5088 L643.8965 108.5088 L655.8965 102.5088 Z" clip-path="url(#clipPath2)" stroke-linecap="square"/>
      <path fill="none" stroke-dasharray="6,2" d="M1610.0543 -223.4197 L1610.0543 52.1361" clip-path="url(#clipPath2)"/>
      <path fill="none" d="M1285.571 52.1361 L1596.5486 52.1361" clip-path="url(#clipPath2)"/>
      <path d="M1604.5486 52.1361 L1592.5486 47.1361 L1595.5486 52.1361 L1592.5486 57.1361 Z" clip-path="url(#clipPath2)" stroke="none"/>
      <text x="1396.7017" xml:space="preserve" y="26.4925" clip-path="url(#clipPath2)" font-family="sans-serif" stroke="none">set(mazeSettings)</text>
      <path fill="none" stroke-dasharray="6,2" d="M1610.0543 174.3583 L1290.5909 174.3583" clip-path="url(#clipPath2)"/>
      <path stroke-dasharray="6,2" d="M1286.5909 174.3583 L1298.5909 180.3583 L1286.5909 174.3583 L1298.5909 168.3583 Z" clip-path="url(#clipPath2)" stroke="none"/>
      <path fill="none" stroke-miterlimit="10" d="M1286.5909 174.3583 L1298.5909 180.3583 L1286.5909 174.3583 L1298.5909 168.3583 Z" clip-path="url(#clipPath2)" stroke-linecap="square"/>
      <path fill="none" stroke-dasharray="6,2" d="M1906.7078 -223.4197 L1906.7078 214.3583" clip-path="url(#clipPath2)"/>
      <path fill="none" d="M1285.5217 214.3583 L1893.2102 214.3583" clip-path="url(#clipPath2)"/>
      <path d="M1901.2102 214.3583 L1889.2102 209.3583 L1892.2102 214.3583 L1889.2102 219.3583 Z" clip-path="url(#clipPath2)" stroke="none"/>
      <text x="1695.6493" xml:space="preserve" y="188.7148" clip-path="url(#clipPath2)" font-family="sans-serif" stroke="none">set(workspaceSettings)</text>
      <path fill="none" stroke-dasharray="6,2" d="M1906.7078 278.0624 L1290.5217 278.0624" clip-path="url(#clipPath2)"/>
      <path stroke-dasharray="6,2" d="M1286.5217 278.0624 L1298.5217 284.0624 L1286.5217 278.0624 L1298.5217 272.0624 Z" clip-path="url(#clipPath2)" stroke="none"/>
      <path fill="none" stroke-miterlimit="10" d="M1286.5217 278.0624 L1298.5217 284.0624 L1286.5217 278.0624 L1298.5217 272.0624 Z" clip-path="url(#clipPath2)" stroke-linecap="square"/>
      <path fill="none" d="M1615.5629 59.5896 L1640.219 59.5896 L1640.219 79.5896 L1628.2473 79.5896" clip-path="url(#clipPath2)"/>
      <path d="M1620.2473 79.5896 L1632.2473 84.5896 L1629.2473 79.5896 L1632.2473 74.5896 Z" clip-path="url(#clipPath2)" stroke="none"/>
      <text x="1652.884" xml:space="preserve" y="73.946" clip-path="url(#clipPath2)" font-family="sans-serif" stroke="none">reset()</text>
      <path fill="none" d="M1620.2473 129.2526 L1640.219 129.2526 L1640.219 149.2526 L1628.2556 149.2526" clip-path="url(#clipPath2)"/>
      <path d="M1620.2556 149.2526 L1632.2556 154.2526 L1629.2556 149.2526 L1632.2556 144.2526 Z" clip-path="url(#clipPath2)" stroke="none"/>
      <text x="1646.1648" xml:space="preserve" y="143.6091" clip-path="url(#clipPath2)" font-family="sans-serif" stroke="none">changeNotification()</text>
      <path fill="none" d="M1620.2473 94.3433 L1640.219 94.3433 L1640.219 114.5444 L1628.219 114.5444" clip-path="url(#clipPath2)"/>
      <path d="M1620.219 114.5444 L1632.219 119.5444 L1629.219 114.5444 L1632.219 109.5444 Z" clip-path="url(#clipPath2)" stroke="none"/>
      <text x="1645.4092" xml:space="preserve" y="108.8003" clip-path="url(#clipPath2)" font-family="sans-serif" stroke="none">notifyViewsMazeChanged()</text>
      <path fill="none" d="M1912.2092 214.3583 L1937.4924 214.3583 L1937.4924 236.2907 L1925.5208 236.2907" clip-path="url(#clipPath2)"/>
      <path d="M1917.5208 236.2907 L1929.5208 241.2907 L1926.5208 236.2907 L1929.5208 231.2907 Z" clip-path="url(#clipPath2)" stroke="none"/>
      <text x="1950.1575" xml:space="preserve" y="229.681" clip-path="url(#clipPath2)" font-family="sans-serif" stroke="none">reset()</text>
      <path fill="none" d="M1917.4924 254.5777 L1937.4924 254.5777 L1937.4924 274.5777 L1925.4998 274.5777" clip-path="url(#clipPath2)"/>
      <path d="M1917.4998 274.5777 L1929.4998 279.5777 L1926.4998 274.5777 L1929.4998 269.5777 Z" clip-path="url(#clipPath2)" stroke="none"/>
      <text x="1947.9266" xml:space="preserve" y="268.9341" clip-path="url(#clipPath2)" font-family="sans-serif" stroke="none">changeNotification()</text>
      <path fill="none" stroke-dasharray="6,2" d="M934.7045 -56.7287 L934.7045 385.3387" clip-path="url(#clipPath2)"/>
      <path fill="none" stroke-dasharray="6,2" d="M1280.0522 286.2531 L1280.0522 385.3387" clip-path="url(#clipPath2)"/>
      <path fill="none" stroke-dasharray="6,2" d="M1610.0543 174.3583 L1610.0543 385.3387" clip-path="url(#clipPath2)"/>
      <path fill="none" stroke-dasharray="6,2" d="M1906.7078 278.0624 L1906.7078 385.3387" clip-path="url(#clipPath2)"/>
    </g>
  </g>
</svg>
